<?xml version="1.0" encoding="UTF-8" standalone="no"?>
<!DOCTYPE svg PUBLIC "-//W3C//DTD SVG 1.1//EN"
 "http://www.w3.org/Graphics/SVG/1.1/DTD/svg11.dtd">
<!-- Generated by graphviz version 2.44.1 (20201121.0304)
 -->
<!-- Title: G Pages: 1 -->
<svg width="457pt" height="374pt"
 viewBox="0.00 0.00 457.00 374.00" xmlns="http://www.w3.org/2000/svg" xmlns:xlink="http://www.w3.org/1999/xlink"><style>
  * {
    fill: transparent !important;
    stroke: rgb(0, 37, 73) !important;
    stroke-width: 1 !important;
  }
  polygon:not(.cluster *, .node *, .edge *, text) {
    stroke: transparent !important;
  }
  text {
    font-size: 10px !important;
    font-family: monospace !important;
    fill: rgb(0, 37, 73) !important;
    stroke: transparent !important;
    transform: translateY(-0.5em);
  }
</style>
<g id="graph0" class="graph" transform="scale(1 1) rotate(0) translate(4 370)">
<title>G</title>
<polygon fill="white" stroke="none" points="-4,4 -4,-370 453.45,-370 453.45,4 -4,4"/>
<!-- HostSystem -->
<g id="node1" class="node">
<title>HostSystem</title>
<polygon fill="lightblue" stroke="black" points="240.39,-366 141.89,-366 141.89,-330 240.39,-330 240.39,-366"/>
<text xml:space="preserve" text-anchor="middle" x="191.14" y="-339.95" font-family="Times,serif" font-size="14.00">Host System</text>
</g>
<!-- VMM_Sandboxer -->
<g id="node2" class="node">
<title>VMM_Sandboxer</title>
<polygon fill="lightblue" stroke="black" points="309.89,-284 196.39,-284 196.39,-248 309.89,-248 309.89,-284"/>
<text xml:space="preserve" text-anchor="middle" x="253.14" y="-257.95" font-family="Times,serif" font-size="14.00">vmm&#45;sandboxer</text>
</g>
<!-- HostSystem&#45;&gt;VMM_Sandboxer -->
<g id="edge1" class="edge">
<title>HostSystem&#45;&gt;VMM_Sandboxer</title>
<path fill="none" stroke="black" d="M204.6,-329.64C212.8,-319.05 223.46,-305.31 232.69,-293.39"/>
<polygon fill="black" stroke="black" points="235.43,-295.57 238.79,-285.52 229.9,-291.28 235.43,-295.57"/>
<text xml:space="preserve" text-anchor="middle" x="240.86" y="-298.95" font-family="Times,serif" font-size="14.00">runs</text>
</g>
<!-- Hypervisors -->
<g id="node3" class="node">
<title>Hypervisors</title>
<polygon fill="lightblue" stroke="black" points="301.14,-201 15.14,-201 15.14,-165 301.14,-165 301.14,-201"/>
<text xml:space="preserve" text-anchor="middle" x="158.14" y="-180.2" font-family="Times,serif" font-size="14.00">Hypervisors</text>
<text xml:space="preserve" text-anchor="middle" x="158.14" y="-169.7" font-family="Times,serif" font-size="14.00">(Cloud Hypervisor, QEMU, StratoVirt)</text>
</g>
<!-- VMM_Sandboxer&#45;&gt;Hypervisors -->
<g id="edge2" class="edge">
<title>VMM_Sandboxer&#45;&gt;Hypervisors</title>
<path fill="none" stroke="black" d="M233,-247.82C219.61,-236.41 201.83,-221.25 186.96,-208.57"/>
<polygon fill="black" stroke="black" points="189.62,-206.24 179.74,-202.41 185.08,-211.57 189.62,-206.24"/>
<text xml:space="preserve" text-anchor="middle" x="234.74" y="-215.95" font-family="Times,serif" font-size="14.00">manages</text>
</g>
<!-- GuestVM -->
<g id="node4" class="node">
<title>GuestVM</title>
<polygon fill="lightblue" stroke="black" points="237.14,-119 161.14,-119 161.14,-83 237.14,-83 237.14,-119"/>
<text xml:space="preserve" text-anchor="middle" x="199.14" y="-92.95" font-family="Times,serif" font-size="14.00">Guest VM</text>
</g>
<!-- Hypervisors&#45;&gt;GuestVM -->
<g id="edge3" class="edge">
<title>Hypervisors&#45;&gt;GuestVM</title>
<path fill="none" stroke="black" d="M167.04,-164.64C172.31,-154.37 179.09,-141.12 185.07,-129.46"/>
<polygon fill="black" stroke="black" points="188.13,-131.17 189.58,-120.67 181.9,-127.97 188.13,-131.17"/>
<text xml:space="preserve" text-anchor="middle" x="211.1" y="-133.95" font-family="Times,serif" font-size="14.00">launches</text>
</g>
<!-- VMM_Task -->
<g id="node5" class="node">
<title>VMM_Task</title>
<polygon fill="lightblue" stroke="black" points="314.14,-36 238.14,-36 238.14,0 314.14,0 314.14,-36"/>
<text xml:space="preserve" text-anchor="middle" x="276.14" y="-9.95" font-family="Times,serif" font-size="14.00">vmm&#45;task</text>
</g>
<!-- GuestVM&#45;&gt;VMM_Task -->
<g id="edge4" class="edge">
<title>GuestVM&#45;&gt;VMM_Task</title>
<path fill="none" stroke="black" d="M211.57,-82.65C218.31,-73.68 227,-62.75 235.64,-53.75 238.89,-50.37 242.44,-46.96 246.04,-43.68"/>
<polygon fill="black" stroke="black" points="248.1,-46.53 253.29,-37.3 243.47,-41.28 248.1,-46.53"/>
<text xml:space="preserve" text-anchor="middle" x="284.39" y="-50.95" font-family="Times,serif" font-size="14.00">PID 1 process</text>
</g>
<!-- VMM_Task&#45;&gt;VMM_Sandboxer -->
<g id="edge5" class="edge">
<title>VMM_Task&#45;&gt;VMM_Sandboxer</title>
<path fill="none" stroke="black" d="M314.37,-34.8C321.88,-39.72 328.78,-45.97 333.14,-53.75 335.43,-57.82 333.53,-59.6 333.14,-64.25 328.02,-125.67 336.79,-145.43 310.14,-201 303.22,-215.43 292.05,-229.04 281.43,-239.96"/>
<polygon fill="black" stroke="black" points="279.25,-237.2 274.57,-246.7 284.15,-242.19 279.25,-237.2"/>
<text xml:space="preserve" text-anchor="middle" x="389.45" y="-133.95" font-family="Times,serif" font-size="14.00">ttrpc over vsock</text>
</g>
<!-- Containerd -->
<g id="node6" class="node">
<title>Containerd</title>
<polygon fill="lightblue" stroke="black" points="361.64,-366 270.64,-366 270.64,-330 361.64,-330 361.64,-366"/>
<text xml:space="preserve" text-anchor="middle" x="316.14" y="-339.95" font-family="Times,serif" font-size="14.00">Containerd</text>
</g>
<!-- Containerd&#45;&gt;VMM_Sandboxer -->
<g id="edge6" class="edge">
<title>Containerd&#45;&gt;VMM_Sandboxer</title>
<path fill="none" stroke="black" d="M302.47,-329.64C294.05,-318.95 283.1,-305.04 273.65,-293.04"/>
<polygon fill="black" stroke="black" points="276.66,-291.2 267.72,-285.51 271.16,-295.54 276.66,-291.2"/>
<text xml:space="preserve" text-anchor="middle" x="348.42" y="-298.95" font-family="Times,serif" font-size="14.00">plugin interface</text>
</g>
</g>
</svg>
