<?xml version="1.0" encoding="UTF-8" standalone="no"?>
<!DOCTYPE svg PUBLIC "-//W3C//DTD SVG 1.1//EN"
 "http://www.w3.org/Graphics/SVG/1.1/DTD/svg11.dtd">
<!-- Generated by graphviz version 2.44.1 (20201121.0304)
 -->
<!-- Title: G Pages: 1 -->
<svg width="675pt" height="598pt"
 viewBox="0.00 0.00 675.00 598.00" xmlns="http://www.w3.org/2000/svg" xmlns:xlink="http://www.w3.org/1999/xlink"><style>
  * {
    fill: transparent !important;
    stroke: rgb(0, 37, 73) !important;
    stroke-width: 1 !important;
  }
  polygon:not(.cluster *, .node *, .edge *, text) {
    stroke: transparent !important;
  }
  text {
    font-size: 10px !important;
    font-family: monospace !important;
    fill: rgb(0, 37, 73) !important;
    stroke: transparent !important;
    transform: translateY(-0.5em);
  }
</style>
<g id="graph0" class="graph" transform="scale(1 1) rotate(0) translate(4 594)">
<title>G</title>
<polygon fill="white" stroke="none" points="-4,4 -4,-594 670.77,-594 670.77,4 -4,4"/>
<!-- KuasarSandboxer -->
<g id="node1" class="node">
<title>KuasarSandboxer</title>
<polygon fill="lightblue" stroke="black" points="582.5,-571 311.5,-571 311.5,-535 582.5,-535 582.5,-571"/>
<text xml:space="preserve" text-anchor="middle" x="447" y="-544.95" font-family="Times,serif" font-size="14.00">KuasarSandboxer (VMM Orchestrator)</text>
</g>
<!-- KuasarSandbox -->
<g id="node2" class="node">
<title>KuasarSandbox</title>
<polygon fill="lightblue" stroke="black" points="560,-399 334,-399 334,-363 560,-363 560,-399"/>
<text xml:space="preserve" text-anchor="middle" x="447" y="-372.95" font-family="Times,serif" font-size="14.00">KuasarSandbox (VM Lifecycle)</text>
</g>
<!-- KuasarSandboxer&#45;&gt;KuasarSandbox -->
<g id="edge1" class="edge">
<title>KuasarSandboxer&#45;&gt;KuasarSandbox</title>
<path fill="none" stroke="black" d="M447,-534.76C447,-505.62 447,-446.31 447,-410.77"/>
<polygon fill="black" stroke="black" points="450.5,-410.8 447,-400.8 443.5,-410.8 450.5,-410.8"/>
<text xml:space="preserve" text-anchor="middle" x="473.25" y="-458.95" font-family="Times,serif" font-size="14.00">Manages</text>
</g>
<!-- Hypervisors -->
<g id="node3" class="node">
<title>Hypervisors</title>
<polygon fill="lightblue" stroke="black" points="286,-227 0,-227 0,-191 286,-191 286,-227"/>
<text xml:space="preserve" text-anchor="middle" x="143" y="-206.2" font-family="Times,serif" font-size="14.00">Hypervisors</text>
<text xml:space="preserve" text-anchor="middle" x="143" y="-195.7" font-family="Times,serif" font-size="14.00">(Cloud Hypervisor, QEMU, StratoVirt)</text>
</g>
<!-- KuasarSandbox&#45;&gt;Hypervisors -->
<g id="edge2" class="edge">
<title>KuasarSandbox&#45;&gt;Hypervisors</title>
<path fill="none" stroke="black" d="M415.9,-362.61C360.71,-331.74 245.68,-267.42 184.06,-232.96"/>
<polygon fill="black" stroke="black" points="186.05,-230.06 175.61,-228.24 182.63,-236.17 186.05,-230.06"/>
<text xml:space="preserve" text-anchor="middle" x="352.87" y="-286.95" font-family="Times,serif" font-size="14.00">Interacts via</text>
</g>
<!-- Resources -->
<g id="node4" class="node">
<title>Resources</title>
<polygon fill="lightblue" stroke="black" points="590,-227 304,-227 304,-191 590,-191 590,-227"/>
<text xml:space="preserve" text-anchor="middle" x="447" y="-206.2" font-family="Times,serif" font-size="14.00">System Resources</text>
<text xml:space="preserve" text-anchor="middle" x="447" y="-195.7" font-family="Times,serif" font-size="14.00">(Cgroups, Network, Storage, Devices)</text>
</g>
<!-- KuasarSandbox&#45;&gt;Resources -->
<g id="edge3" class="edge">
<title>KuasarSandbox&#45;&gt;Resources</title>
<path fill="none" stroke="black" d="M447,-362.76C447,-333.62 447,-274.31 447,-238.77"/>
<polygon fill="black" stroke="black" points="450.5,-238.8 447,-228.8 443.5,-238.8 450.5,-238.8"/>
<text xml:space="preserve" text-anchor="middle" x="473.25" y="-286.95" font-family="Times,serif" font-size="14.00">Manages</text>
</g>
<!-- VMMClientAPIs -->
<g id="node5" class="node">
<title>VMMClientAPIs</title>
<polygon fill="lightblue" stroke="black" points="449.25,-55 320.75,-55 320.75,-19 449.25,-19 449.25,-55"/>
<text xml:space="preserve" text-anchor="middle" x="385" y="-28.95" font-family="Times,serif" font-size="14.00">VMM Client APIs</text>
</g>
<!-- Hypervisors&#45;&gt;VMMClientAPIs -->
<g id="edge4" class="edge">
<title>Hypervisors&#45;&gt;VMMClientAPIs</title>
<path fill="none" stroke="black" d="M167.54,-190.76C211.02,-160.22 301.67,-96.54 351.09,-61.82"/>
<polygon fill="black" stroke="black" points="352.99,-64.76 359.16,-56.15 348.97,-59.04 352.99,-64.76"/>
<text xml:space="preserve" text-anchor="middle" x="297.51" y="-114.95" font-family="Times,serif" font-size="14.00">Exposes</text>
</g>
<!-- VMMClientAPIs&#45;&gt;KuasarSandbox -->
<g id="edge5" class="edge">
<title>VMMClientAPIs&#45;&gt;KuasarSandbox</title>
<path fill="none" stroke="black" d="M430.58,-55.42C482.23,-77.93 563.8,-122.56 599,-191 633.43,-257.94 545.65,-323.55 489.56,-357.05"/>
<polygon fill="black" stroke="black" points="488.01,-353.9 481.14,-361.97 491.54,-359.95 488.01,-353.9"/>
<text xml:space="preserve" text-anchor="middle" x="636.77" y="-200.95" font-family="Times,serif" font-size="14.00">Utilizes</text>
</g>
</g>
</svg>
