<?xml version="1.0" encoding="UTF-8" standalone="no"?>
<!DOCTYPE svg PUBLIC "-//W3C//DTD SVG 1.1//EN"
 "http://www.w3.org/Graphics/SVG/1.1/DTD/svg11.dtd">
<!-- Generated by graphviz version 2.44.1 (20201121.0304)
 -->
<!-- Title: G Pages: 1 -->
<svg width="505pt" height="489pt"
 viewBox="0.00 0.00 505.00 489.00" xmlns="http://www.w3.org/2000/svg" xmlns:xlink="http://www.w3.org/1999/xlink"><style>
  * {
    fill: transparent !important;
    stroke: rgb(0, 37, 73) !important;
    stroke-width: 1 !important;
  }
  polygon:not(.cluster *, .node *, .edge *, text) {
    stroke: transparent !important;
  }
  text {
    font-size: 10px !important;
    font-family: monospace !important;
    fill: rgb(0, 37, 73) !important;
    stroke: transparent !important;
    transform: translateY(-0.5em);
  }
</style>
<g id="graph0" class="graph" transform="scale(1 1) rotate(0) translate(4 485)">
<title>G</title>
<polygon fill="white" stroke="none" points="-4,4 -4,-485 501,-485 501,4 -4,4"/>
<g id="clust1" class="cluster">
<title>cluster_image_creation</title>
<polygon fill="none" stroke="black" points="244,-14.36 244,-288.96 473,-288.96 473,-14.36 244,-14.36"/>
<text xml:space="preserve" text-anchor="middle" x="358.5" y="-271.66" font-family="Times,serif" font-size="14.00">Image Assembly</text>
</g>
<g id="clust2" class="cluster">
<title>cluster_orchestration</title>
<polygon fill="none" stroke="black" points="87,-340.11 87,-466.64 396,-466.64 396,-340.11 87,-340.11"/>
<text xml:space="preserve" text-anchor="middle" x="241.5" y="-449.34" font-family="Times,serif" font-size="14.00">Image and RootFS Building Orchestration</text>
</g>
<g id="clust3" class="cluster">
<title>cluster_rootfs</title>
<polygon fill="none" stroke="black" points="8,-162.43 8,-288.96 236,-288.96 236,-162.43 8,-162.43"/>
<text xml:space="preserve" text-anchor="middle" x="122" y="-271.66" font-family="Times,serif" font-size="14.00">Root Filesystem Construction</text>
</g>
<!-- build.sh -->
<g id="node1" class="node">
<title>build.sh</title>
<polygon fill="lightblue" stroke="black" points="304.25,-404.36 145.75,-404.36 145.75,-368.36 304.25,-368.36 304.25,-404.36"/>
<text xml:space="preserve" text-anchor="middle" x="225" y="-383.56" font-family="Times,serif" font-size="14.00">build.sh</text>
<text xml:space="preserve" text-anchor="middle" x="225" y="-373.06" font-family="Times,serif" font-size="14.00">(Main Orchestrator)</text>
</g>
<!-- build_rootfs.sh (e.g., CentOS) -->
<g id="node2" class="node">
<title>build_rootfs.sh (e.g., CentOS)</title>
<polygon fill="lightblue" stroke="black" points="227.5,-227.36 16.5,-227.36 16.5,-191.36 227.5,-191.36 227.5,-227.36"/>
<text xml:space="preserve" text-anchor="middle" x="122" y="-206.56" font-family="Times,serif" font-size="14.00">build_rootfs.sh</text>
<text xml:space="preserve" text-anchor="middle" x="122" y="-196.06" font-family="Times,serif" font-size="14.00">(Guest OS Specific RootFS)</text>
</g>
<!-- build.sh&#45;&gt;build_rootfs.sh (e.g., CentOS) -->
<g id="edge1" class="edge">
<title>build.sh&#45;&gt;build_rootfs.sh (e.g., CentOS)</title>
<path fill="none" stroke="black" d="M214.75,-367.94C196.7,-337.28 159.15,-273.48 137.78,-237.17"/>
<polygon fill="black" stroke="black" points="141.07,-235.85 132.98,-229.01 135.03,-239.41 141.07,-235.85"/>
<text xml:space="preserve" text-anchor="middle" x="208.98" y="-304.31" font-family="Times,serif" font-size="14.00">Invokes</text>
</g>
<!-- build_image.sh -->
<g id="node3" class="node">
<title>build_image.sh</title>
<polygon fill="lightblue" stroke="black" points="440.25,-227.36 251.75,-227.36 251.75,-191.36 440.25,-191.36 440.25,-227.36"/>
<text xml:space="preserve" text-anchor="middle" x="346" y="-206.56" font-family="Times,serif" font-size="14.00">build_image.sh</text>
<text xml:space="preserve" text-anchor="middle" x="346" y="-196.06" font-family="Times,serif" font-size="14.00">(Kata Containers Image)</text>
</g>
<!-- build.sh&#45;&gt;build_image.sh -->
<g id="edge2" class="edge">
<title>build.sh&#45;&gt;build_image.sh</title>
<path fill="none" stroke="black" d="M237.04,-367.94C258.24,-337.28 302.35,-273.48 327.46,-237.17"/>
<polygon fill="black" stroke="black" points="330.34,-239.17 333.14,-228.95 324.58,-235.19 330.34,-239.17"/>
<text xml:space="preserve" text-anchor="middle" x="304.51" y="-304.31" font-family="Times,serif" font-size="14.00">Invokes</text>
</g>
<!-- nsdax.gpl.c -->
<g id="node4" class="node">
<title>nsdax.gpl.c</title>
<polygon fill="lightblue" stroke="black" points="395.75,-79.36 252.25,-79.36 252.25,-43.36 395.75,-43.36 395.75,-79.36"/>
<text xml:space="preserve" text-anchor="middle" x="324" y="-58.56" font-family="Times,serif" font-size="14.00">nsdax.gpl.c</text>
<text xml:space="preserve" text-anchor="middle" x="324" y="-48.06" font-family="Times,serif" font-size="14.00">(NVDIMM Metadata)</text>
</g>
<!-- build_image.sh&#45;&gt;nsdax.gpl.c -->
<g id="edge3" class="edge">
<title>build_image.sh&#45;&gt;nsdax.gpl.c</title>
<path fill="none" stroke="black" d="M330.74,-191.1C320.39,-178.2 307.62,-159.57 302,-140.61 297.03,-123.84 302.03,-104.97 308.51,-89.96"/>
<polygon fill="black" stroke="black" points="311.56,-91.7 312.71,-81.17 305.24,-88.68 311.56,-91.7"/>
<text xml:space="preserve" text-anchor="middle" x="399.5" y="-127.31" font-family="Times,serif" font-size="14.00">Uses for DAX configuration</text>
</g>
</g>
</svg>
