<?xml version="1.0" encoding="UTF-8" standalone="no"?>
<!DOCTYPE svg PUBLIC "-//W3C//DTD SVG 1.1//EN"
 "http://www.w3.org/Graphics/SVG/1.1/DTD/svg11.dtd">
<!-- Generated by graphviz version 2.44.1 (20201121.0304)
 -->
<!-- Title: G Pages: 1 -->
<svg width="727pt" height="670pt"
 viewBox="0.00 0.00 727.00 670.00" xmlns="http://www.w3.org/2000/svg" xmlns:xlink="http://www.w3.org/1999/xlink"><style>
  * {
    fill: transparent !important;
    stroke: rgb(0, 37, 73) !important;
    stroke-width: 1 !important;
  }
  polygon:not(.cluster *, .node *, .edge *, text) {
    stroke: transparent !important;
  }
  text {
    font-size: 10px !important;
    font-family: monospace !important;
    fill: rgb(0, 37, 73) !important;
    stroke: transparent !important;
    transform: translateY(-0.5em);
  }
</style>
<g id="graph0" class="graph" transform="scale(1 1) rotate(0) translate(4 665.5)">
<title>G</title>
<polygon fill="white" stroke="none" points="-4,4 -4,-665.5 722.9,-665.5 722.9,4 -4,4"/>
<!-- Kernel Type &amp; Arch -->
<g id="node1" class="node">
<title>Kernel Type &amp; Arch</title>
<polygon fill="lightblue" stroke="black" points="522.75,-652.75 304.25,-652.75 304.25,-613.25 522.75,-613.25 522.75,-652.75"/>
<text xml:space="preserve" text-anchor="middle" x="413.5" y="-635.45" font-family="Times,serif" font-size="14.00">Kernel Type</text>
<text xml:space="preserve" text-anchor="middle" x="413.5" y="-624.95" font-family="Times,serif" font-size="14.00">(micro/mini) &amp; Architecture</text>
<text xml:space="preserve" text-anchor="middle" x="413.5" y="-614.45" font-family="Times,serif" font-size="14.00">(x86_64/aarch64)</text>
</g>
<!-- build&#45;kernel.sh Script -->
<g id="node2" class="node">
<title>build&#45;kernel.sh Script</title>
<polygon fill="lightblue" stroke="black" points="504,-527 323,-527 323,-491 504,-491 504,-527"/>
<text xml:space="preserve" text-anchor="middle" x="413.5" y="-506.2" font-family="Times,serif" font-size="14.00">build&#45;kernel.sh Script</text>
<text xml:space="preserve" text-anchor="middle" x="413.5" y="-495.7" font-family="Times,serif" font-size="14.00">(Orchestrator)</text>
</g>
<!-- Kernel Type &amp; Arch&#45;&gt;build&#45;kernel.sh Script -->
<g id="edge1" class="edge">
<title>Kernel Type &amp; Arch&#45;&gt;build&#45;kernel.sh Script</title>
<path fill="none" stroke="black" d="M413.5,-612.94C413.5,-593.06 413.5,-561.65 413.5,-538.75"/>
<polygon fill="black" stroke="black" points="417,-538.86 413.5,-528.86 410,-538.86 417,-538.86"/>
<text xml:space="preserve" text-anchor="middle" x="473.5" y="-561.95" font-family="Times,serif" font-size="14.00">Input Parameters</text>
</g>
<!-- Kernel Configuration Fragments -->
<g id="node3" class="node">
<title>Kernel Configuration Fragments</title>
<polygon fill="lightblue" stroke="black" points="241,-407 0,-407 0,-371 241,-371 241,-407"/>
<text xml:space="preserve" text-anchor="middle" x="120.5" y="-386.2" font-family="Times,serif" font-size="14.00">Kernel Configuration Fragments</text>
<text xml:space="preserve" text-anchor="middle" x="120.5" y="-375.7" font-family="Times,serif" font-size="14.00">(e.g., base.conf, cgroup.conf)</text>
</g>
<!-- build&#45;kernel.sh Script&#45;&gt;Kernel Configuration Fragments -->
<g id="edge2" class="edge">
<title>build&#45;kernel.sh Script&#45;&gt;Kernel Configuration Fragments</title>
<path fill="none" stroke="black" d="M322.79,-500.49C253.33,-492.91 165.04,-478.75 138.5,-454.25 128.59,-445.11 123.97,-431 121.88,-418.33"/>
<polygon fill="black" stroke="black" points="125.4,-418.31 120.77,-408.79 118.45,-419.12 125.4,-418.31"/>
<text xml:space="preserve" text-anchor="middle" x="273.5" y="-440.95" font-family="Times,serif" font-size="14.00">Selects fragments based on type/arch</text>
</g>
<!-- .config File -->
<g id="node4" class="node">
<title>.config File</title>
<polygon fill="lightblue" stroke="black" points="534,-407 353,-407 353,-371 534,-371 534,-407"/>
<text xml:space="preserve" text-anchor="middle" x="443.5" y="-386.2" font-family="Times,serif" font-size="14.00">.config File</text>
<text xml:space="preserve" text-anchor="middle" x="443.5" y="-375.7" font-family="Times,serif" font-size="14.00">(Merged Configuration)</text>
</g>
<!-- build&#45;kernel.sh Script&#45;&gt;.config File -->
<g id="edge3" class="edge">
<title>build&#45;kernel.sh Script&#45;&gt;.config File</title>
<path fill="none" stroke="black" d="M411.56,-490.52C410.63,-477.43 410.47,-459.19 414.5,-443.75 416.91,-434.52 421.21,-425.13 425.77,-416.84"/>
<polygon fill="black" stroke="black" points="428.73,-418.72 430.8,-408.33 422.7,-415.16 428.73,-418.72"/>
<text xml:space="preserve" text-anchor="middle" x="512" y="-440.95" font-family="Times,serif" font-size="14.00">Merges fragments to create</text>
</g>
<!-- Linux Kernel Source -->
<g id="node5" class="node">
<title>Linux Kernel Source</title>
<polygon fill="lightblue" stroke="black" points="612.75,-286 424.25,-286 424.25,-250 612.75,-250 612.75,-286"/>
<text xml:space="preserve" text-anchor="middle" x="518.5" y="-265.2" font-family="Times,serif" font-size="14.00">Linux Kernel Source</text>
<text xml:space="preserve" text-anchor="middle" x="518.5" y="-254.7" font-family="Times,serif" font-size="14.00">(e.g., /tmp/linux&#45;qemu)</text>
</g>
<!-- build&#45;kernel.sh Script&#45;&gt;Linux Kernel Source -->
<g id="edge4" class="edge">
<title>build&#45;kernel.sh Script&#45;&gt;Linux Kernel Source</title>
<path fill="none" stroke="black" d="M504.44,-493.96C549.08,-485.01 596.13,-471.78 609.5,-454.25 648.96,-402.51 586.66,-330.97 547.1,-293.74"/>
<polygon fill="black" stroke="black" points="549.89,-291.56 540.16,-287.37 545.16,-296.71 549.89,-291.56"/>
<text xml:space="preserve" text-anchor="middle" x="670.15" y="-380.95" font-family="Times,serif" font-size="14.00">Compiles with</text>
</g>
<!-- .config File&#45;&gt;Linux Kernel Source -->
<g id="edge5" class="edge">
<title>.config File&#45;&gt;Linux Kernel Source</title>
<path fill="none" stroke="black" d="M454.41,-370.7C466.79,-351.04 487.15,-318.74 501.6,-295.81"/>
<polygon fill="black" stroke="black" points="504.4,-297.93 506.77,-287.6 498.48,-294.2 504.4,-297.93"/>
<text xml:space="preserve" text-anchor="middle" x="520.75" y="-319.95" font-family="Times,serif" font-size="14.00">Configures</text>
</g>
<!-- Kernel Image -->
<g id="node6" class="node">
<title>Kernel Image</title>
<polygon fill="lightblue" stroke="black" points="575.25,-165 461.75,-165 461.75,-129 575.25,-129 575.25,-165"/>
<text xml:space="preserve" text-anchor="middle" x="518.5" y="-144.2" font-family="Times,serif" font-size="14.00">Kernel Image</text>
<text xml:space="preserve" text-anchor="middle" x="518.5" y="-133.7" font-family="Times,serif" font-size="14.00">(vmlinux.bin)</text>
</g>
<!-- Linux Kernel Source&#45;&gt;Kernel Image -->
<g id="edge6" class="edge">
<title>Linux Kernel Source&#45;&gt;Kernel Image</title>
<path fill="none" stroke="black" d="M518.5,-249.7C518.5,-230.57 518.5,-199.46 518.5,-176.68"/>
<polygon fill="black" stroke="black" points="522,-176.84 518.5,-166.84 515,-176.84 522,-176.84"/>
<text xml:space="preserve" text-anchor="middle" x="552.25" y="-198.95" font-family="Times,serif" font-size="14.00">Generates</text>
</g>
<!-- VMM Specific Kernels -->
<g id="node7" class="node">
<title>VMM Specific Kernels</title>
<polygon fill="lightblue" stroke="black" points="661.5,-44 375.5,-44 375.5,-8 661.5,-8 661.5,-44"/>
<text xml:space="preserve" text-anchor="middle" x="518.5" y="-23.2" font-family="Times,serif" font-size="14.00">VMM Specific Kernels</text>
<text xml:space="preserve" text-anchor="middle" x="518.5" y="-12.7" font-family="Times,serif" font-size="14.00">(Cloud Hypervisor, QEMU, StratoVirt)</text>
</g>
<!-- Kernel Image&#45;&gt;VMM Specific Kernels -->
<g id="edge7" class="edge">
<title>Kernel Image&#45;&gt;VMM Specific Kernels</title>
<path fill="none" stroke="black" d="M518.5,-128.7C518.5,-109.57 518.5,-78.46 518.5,-55.68"/>
<polygon fill="black" stroke="black" points="522,-55.84 518.5,-45.84 515,-55.84 522,-55.84"/>
<text xml:space="preserve" text-anchor="middle" x="544.75" y="-78.95" font-family="Times,serif" font-size="14.00">Used by</text>
</g>
</g>
</svg>
