<?xml version="1.0" encoding="UTF-8" standalone="no"?>
<!DOCTYPE svg PUBLIC "-//W3C//DTD SVG 1.1//EN"
 "http://www.w3.org/Graphics/SVG/1.1/DTD/svg11.dtd">
<!-- Generated by graphviz version 2.44.1 (20201121.0304)
 -->
<!-- Title: G Pages: 1 -->
<svg width="743pt" height="649pt"
 viewBox="0.00 0.00 743.00 649.00" xmlns="http://www.w3.org/2000/svg" xmlns:xlink="http://www.w3.org/1999/xlink"><style>
  * {
    fill: transparent !important;
    stroke: rgb(0, 37, 73) !important;
    stroke-width: 1 !important;
  }
  polygon:not(.cluster *, .node *, .edge *, text) {
    stroke: transparent !important;
  }
  text {
    font-size: 10px !important;
    font-family: monospace !important;
    fill: rgb(0, 37, 73) !important;
    stroke: transparent !important;
    transform: translateY(-0.5em);
  }
</style>
<g id="graph0" class="graph" transform="scale(1 1) rotate(0) translate(4 644.75)">
<title>G</title>
<polygon fill="white" stroke="none" points="-4,4 -4,-644.75 739.01,-644.75 739.01,4 -4,4"/>
<!-- Containerd -->
<g id="node1" class="node">
<title>Containerd</title>
<polygon fill="lightblue" stroke="black" points="640.75,-627 452.25,-627 452.25,-591 640.75,-591 640.75,-627"/>
<text xml:space="preserve" text-anchor="middle" x="546.5" y="-600.95" font-family="Helvetica,sans-Serif" font-size="14.00">Containerd/tTRPC Client</text>
</g>
<!-- VMMTask -->
<g id="node2" class="node">
<title>VMMTask</title>
<polygon fill="lightblue" stroke="black" points="508,-483 357,-483 357,-447 508,-447 508,-483"/>
<text xml:space="preserve" text-anchor="middle" x="432.5" y="-456.95" font-family="Helvetica,sans-Serif" font-size="14.00">VMM&#45;Task (main.rs)</text>
</g>
<!-- Containerd&#45;&gt;VMMTask -->
<g id="edge1" class="edge">
<title>Containerd&#45;&gt;VMMTask</title>
<path fill="none" stroke="#333333" d="M531.43,-590.6C520.14,-577.46 504.39,-558.89 491,-542.25 477.87,-525.94 463.55,-507.29 452.37,-492.52"/>
<polygon fill="#333333" stroke="#333333" points="455.24,-490.52 446.43,-484.65 449.66,-494.74 455.24,-490.52"/>
<text xml:space="preserve" text-anchor="middle" x="554.75" y="-528.95" font-family="Times,serif" font-size="14.00">RPC Calls (tTRPC)</text>
</g>
<!-- IOAndStreaming -->
<g id="node5" class="node">
<title>IOAndStreaming</title>
<polygon fill="lightblue" stroke="black" points="632.5,-194 436.5,-194 436.5,-158 632.5,-158 632.5,-194"/>
<text xml:space="preserve" text-anchor="middle" x="534.5" y="-167.95" font-family="Helvetica,sans-Serif" font-size="14.00">I/O &amp; Streaming Services</text>
</g>
<!-- Containerd&#45;&gt;IOAndStreaming -->
<g id="edge10" class="edge">
<title>Containerd&#45;&gt;IOAndStreaming</title>
<path fill="none" stroke="#333333" d="M575.2,-590.53C591.19,-579.03 609.62,-562.38 618.5,-542.25 620.38,-537.98 618.61,-536.42 618.5,-531.75 615.39,-403.19 658.41,-359.5 604.5,-242.75 597,-226.52 583.5,-212.34 570.34,-201.36"/>
<polygon fill="#333333" stroke="#333333" points="572.57,-198.66 562.55,-195.21 568.24,-204.15 572.57,-198.66"/>
<text xml:space="preserve" text-anchor="middle" x="682.51" y="-384.95" font-family="Times,serif" font-size="14.00">Streaming Data</text>
</g>
<!-- ShimLayer -->
<g id="node3" class="node">
<title>ShimLayer</title>
<polygon fill="lightblue" stroke="black" points="575.5,-338 289.5,-338 289.5,-302 575.5,-302 575.5,-338"/>
<text xml:space="preserve" text-anchor="middle" x="432.5" y="-311.95" font-family="Helvetica,sans-Serif" font-size="14.00">containerd&#45;shim / Process Management</text>
</g>
<!-- VMMTask&#45;&gt;ShimLayer -->
<g id="edge2" class="edge">
<title>VMMTask&#45;&gt;ShimLayer</title>
<path fill="none" stroke="#333333" d="M432.5,-446.75C432.5,-422.7 432.5,-378.79 432.5,-349.74"/>
<polygon fill="#333333" stroke="#333333" points="436,-349.82 432.5,-339.82 429,-349.82 436,-349.82"/>
<text xml:space="preserve" text-anchor="middle" x="473.75" y="-384.95" font-family="Times,serif" font-size="14.00">Initializes</text>
</g>
<!-- SandboxEnvironment -->
<g id="node6" class="node">
<title>SandboxEnvironment</title>
<polygon fill="lightblue" stroke="black" points="241,-338 0,-338 0,-302 241,-302 241,-338"/>
<text xml:space="preserve" text-anchor="middle" x="120.5" y="-311.95" font-family="Helvetica,sans-Serif" font-size="14.00">Sandbox Resources &amp; Networking</text>
</g>
<!-- VMMTask&#45;&gt;SandboxEnvironment -->
<g id="edge8" class="edge">
<title>VMMTask&#45;&gt;SandboxEnvironment</title>
<path fill="none" stroke="#333333" d="M394.55,-446.61C337.91,-420.64 231.24,-371.76 169.01,-343.23"/>
<polygon fill="#333333" stroke="#333333" points="170.59,-340.11 160.04,-339.12 167.68,-346.47 170.59,-340.11"/>
<text xml:space="preserve" text-anchor="middle" x="327.11" y="-384.95" font-family="Times,serif" font-size="14.00">Initializes</text>
</g>
<!-- RuncOCI -->
<g id="node4" class="node">
<title>RuncOCI</title>
<polygon fill="lightblue" stroke="black" points="358,-194 207,-194 207,-158 358,-158 358,-194"/>
<text xml:space="preserve" text-anchor="middle" x="282.5" y="-167.95" font-family="Helvetica,sans-Serif" font-size="14.00">runc / OCI Runtime</text>
</g>
<!-- ShimLayer&#45;&gt;RuncOCI -->
<g id="edge3" class="edge">
<title>ShimLayer&#45;&gt;RuncOCI</title>
<path fill="none" stroke="#333333" d="M377.52,-301.57C352.57,-291.13 324.55,-275.49 306,-253.25 294.76,-239.77 288.89,-220.96 285.83,-205.39"/>
<polygon fill="#333333" stroke="#333333" points="289.32,-205.05 284.23,-195.75 282.41,-206.19 289.32,-205.05"/>
<text xml:space="preserve" text-anchor="middle" x="407.25" y="-239.95" font-family="Times,serif" font-size="14.00">Manages Container Lifecycle</text>
</g>
<!-- ShimLayer&#45;&gt;IOAndStreaming -->
<g id="edge4" class="edge">
<title>ShimLayer&#45;&gt;IOAndStreaming</title>
<path fill="none" stroke="#333333" d="M461.45,-301.62C478.6,-289.94 499.46,-273.08 512.5,-253.25 521.88,-238.99 527.33,-220.68 530.46,-205.57"/>
<polygon fill="#333333" stroke="#333333" points="533.9,-206.24 532.24,-195.77 527.01,-204.99 533.9,-206.24"/>
<text xml:space="preserve" text-anchor="middle" x="559.08" y="-239.95" font-family="Times,serif" font-size="14.00">Handles I/O</text>
</g>
<!-- SystemInterfaces -->
<g id="node7" class="node">
<title>SystemInterfaces</title>
<polygon fill="lightblue" stroke="black" points="399.25,-50 165.75,-50 165.75,-14 399.25,-14 399.25,-50"/>
<text xml:space="preserve" text-anchor="middle" x="282.5" y="-23.95" font-family="Helvetica,sans-Serif" font-size="14.00">Kernel / Filesystem / Devices</text>
</g>
<!-- RuncOCI&#45;&gt;SystemInterfaces -->
<g id="edge6" class="edge">
<title>RuncOCI&#45;&gt;SystemInterfaces</title>
<path fill="none" stroke="#333333" d="M282.5,-157.59C282.5,-133.61 282.5,-90.14 282.5,-61.42"/>
<polygon fill="#333333" stroke="#333333" points="286,-61.62 282.5,-51.62 279,-61.62 286,-61.62"/>
<text xml:space="preserve" text-anchor="middle" x="335" y="-95.95" font-family="Times,serif" font-size="14.00">Interacts with</text>
</g>
<!-- IOAndStreaming&#45;&gt;SystemInterfaces -->
<g id="edge7" class="edge">
<title>IOAndStreaming&#45;&gt;SystemInterfaces</title>
<path fill="none" stroke="#333333" d="M503.6,-157.59C458.23,-132.02 373.53,-84.29 323.16,-55.91"/>
<polygon fill="#333333" stroke="#333333" points="325.01,-52.94 314.58,-51.08 321.57,-59.03 325.01,-52.94"/>
<text xml:space="preserve" text-anchor="middle" x="446.06" y="-95.95" font-family="Times,serif" font-size="14.00">Accesses</text>
</g>
<!-- SandboxEnvironment&#45;&gt;RuncOCI -->
<g id="edge9" class="edge">
<title>SandboxEnvironment&#45;&gt;RuncOCI</title>
<path fill="none" stroke="#333333" d="M118.21,-301.75C116.95,-285.01 117.71,-259.69 130.5,-242.75 146.72,-221.26 171.4,-206.7 196.19,-196.87"/>
<polygon fill="#333333" stroke="#333333" points="197.22,-200.22 205.38,-193.46 194.79,-193.65 197.22,-200.22"/>
<text xml:space="preserve" text-anchor="middle" x="213" y="-239.95" font-family="Times,serif" font-size="14.00">Provides Configuration</text>
</g>
<!-- SandboxEnvironment&#45;&gt;SystemInterfaces -->
<g id="edge5" class="edge">
<title>SandboxEnvironment&#45;&gt;SystemInterfaces</title>
<path fill="none" stroke="#333333" d="M116.25,-301.89C109.59,-271.18 99.73,-205.5 123.5,-158 146.94,-111.16 197.05,-76.47 234.79,-55.67"/>
<polygon fill="#333333" stroke="#333333" points="236.08,-58.94 243.25,-51.14 232.78,-52.77 236.08,-58.94"/>
<text xml:space="preserve" text-anchor="middle" x="161" y="-167.95" font-family="Times,serif" font-size="14.00">Configures</text>
</g>
</g>
</svg>
