<?xml version="1.0" encoding="UTF-8" standalone="no"?>
<!DOCTYPE svg PUBLIC "-//W3C//DTD SVG 1.1//EN"
 "http://www.w3.org/Graphics/SVG/1.1/DTD/svg11.dtd">
<!-- Generated by graphviz version 2.44.1 (20201121.0304)
 -->
<!-- Title: G Pages: 1 -->
<svg width="369pt" height="328pt"
 viewBox="0.00 0.00 369.00 328.00" xmlns="http://www.w3.org/2000/svg" xmlns:xlink="http://www.w3.org/1999/xlink"><style>
  * {
    fill: transparent !important;
    stroke: rgb(0, 37, 73) !important;
    stroke-width: 1 !important;
  }
  polygon:not(.cluster *, .node *, .edge *, text) {
    stroke: transparent !important;
  }
  text {
    font-size: 10px !important;
    font-family: monospace !important;
    fill: rgb(0, 37, 73) !important;
    stroke: transparent !important;
    transform: translateY(-0.5em);
  }
</style>
<g id="graph0" class="graph" transform="scale(1 1) rotate(0) translate(4 324)">
<title>G</title>
<polygon fill="white" stroke="none" points="-4,4 -4,-324 364.5,-324 364.5,4 -4,4"/>
<!-- ProtoFiles -->
<g id="node1" class="node">
<title>ProtoFiles</title>
<polygon fill="lightblue" stroke="black" points="173.5,-318 0,-318 0,-282 173.5,-282 173.5,-318"/>
<text xml:space="preserve" text-anchor="middle" x="86.75" y="-297.2" font-family="Times,serif" font-size="14.00">Protocol Buffer Files</text>
<text xml:space="preserve" text-anchor="middle" x="86.75" y="-286.7" font-family="Times,serif" font-size="14.00">(e.g., sandbox.proto)</text>
</g>
<!-- TTRPCCodegen -->
<g id="node2" class="node">
<title>TTRPCCodegen</title>
<polygon fill="lightblue" stroke="black" points="219.5,-225 46,-225 46,-189 219.5,-189 219.5,-225"/>
<text xml:space="preserve" text-anchor="middle" x="132.75" y="-198.95" font-family="Times,serif" font-size="14.00">ttrpc&#45;codegen Library</text>
</g>
<!-- ProtoFiles&#45;&gt;TTRPCCodegen -->
<g id="edge1" class="edge">
<title>ProtoFiles&#45;&gt;TTRPCCodegen</title>
<path fill="none" stroke="black" d="M95.4,-281.88C102.04,-268.75 111.34,-250.36 118.99,-235.21"/>
<polygon fill="black" stroke="black" points="121.91,-237.2 123.3,-226.7 115.66,-234.05 121.91,-237.2"/>
<text xml:space="preserve" text-anchor="middle" x="131.25" y="-244.95" font-family="Times,serif" font-size="14.00">Input</text>
</g>
<!-- GeneratedAPICode -->
<g id="node4" class="node">
<title>GeneratedAPICode</title>
<polygon fill="lightblue" stroke="black" points="280.5,-131 107,-131 107,-95 280.5,-95 280.5,-131"/>
<text xml:space="preserve" text-anchor="middle" x="193.75" y="-110.2" font-family="Times,serif" font-size="14.00">Generated API Modules</text>
<text xml:space="preserve" text-anchor="middle" x="193.75" y="-99.7" font-family="Times,serif" font-size="14.00">(src/api/*.rs)</text>
</g>
<!-- TTRPCCodegen&#45;&gt;GeneratedAPICode -->
<g id="edge3" class="edge">
<title>TTRPCCodegen&#45;&gt;GeneratedAPICode</title>
<path fill="none" stroke="black" d="M144.22,-188.7C153.17,-175.2 165.75,-156.23 176,-140.78"/>
<polygon fill="black" stroke="black" points="178.88,-142.76 181.49,-132.49 173.05,-138.89 178.88,-142.76"/>
<text xml:space="preserve" text-anchor="middle" x="198.83" y="-151.95" font-family="Times,serif" font-size="14.00">Generates</text>
</g>
<!-- BuildScript -->
<g id="node3" class="node">
<title>BuildScript</title>
<polygon fill="lightblue" stroke="black" points="320,-318 191.5,-318 191.5,-282 320,-282 320,-318"/>
<text xml:space="preserve" text-anchor="middle" x="255.75" y="-291.95" font-family="Times,serif" font-size="14.00">build.rs Script</text>
</g>
<!-- BuildScript&#45;&gt;TTRPCCodegen -->
<g id="edge2" class="edge">
<title>BuildScript&#45;&gt;TTRPCCodegen</title>
<path fill="none" stroke="black" d="M232.33,-281.67C213.35,-267.63 186.39,-247.68 165.31,-232.09"/>
<polygon fill="black" stroke="black" points="167.43,-229.3 157.3,-226.17 163.26,-234.93 167.43,-229.3"/>
<text xml:space="preserve" text-anchor="middle" x="212.94" y="-244.95" font-family="Times,serif" font-size="14.00">Uses</text>
</g>
<!-- BuildScript&#45;&gt;GeneratedAPICode -->
<g id="edge4" class="edge">
<title>BuildScript&#45;&gt;GeneratedAPICode</title>
<path fill="none" stroke="black" d="M257.05,-281.93C258.45,-253.79 258.1,-196.6 236.75,-154.75 233.89,-149.14 229.93,-143.88 225.57,-139.12"/>
<polygon fill="black" stroke="black" points="228.11,-136.71 218.52,-132.21 223.21,-141.71 228.11,-136.71"/>
<text xml:space="preserve" text-anchor="middle" x="308" y="-198.95" font-family="Times,serif" font-size="14.00">Post&#45;processes</text>
</g>
<!-- VMMComponents -->
<g id="node5" class="node">
<title>VMMComponents</title>
<polygon fill="lightblue" stroke="black" points="254.25,-38 133.25,-38 133.25,-2 254.25,-2 254.25,-38"/>
<text xml:space="preserve" text-anchor="middle" x="193.75" y="-11.95" font-family="Times,serif" font-size="14.00">VMM Components</text>
</g>
<!-- GeneratedAPICode&#45;&gt;VMMComponents -->
<g id="edge5" class="edge">
<title>GeneratedAPICode&#45;&gt;VMMComponents</title>
<path fill="none" stroke="black" d="M193.75,-94.88C193.75,-82.13 193.75,-64.42 193.75,-49.53"/>
<polygon fill="black" stroke="black" points="197.25,-49.86 193.75,-39.86 190.25,-49.86 197.25,-49.86"/>
<text xml:space="preserve" text-anchor="middle" x="220" y="-58.95" font-family="Times,serif" font-size="14.00">Used by</text>
</g>
</g>
</svg>
