<?xml version="1.0" encoding="UTF-8" standalone="no"?>
<!DOCTYPE svg PUBLIC "-//W3C//DTD SVG 1.1//EN"
 "http://www.w3.org/Graphics/SVG/1.1/DTD/svg11.dtd">
<!-- Generated by graphviz version 2.44.1 (20201121.0304)
 -->
<!-- Title: G Pages: 1 -->
<svg width="473pt" height="473pt"
 viewBox="0.00 0.00 473.00 473.00" xmlns="http://www.w3.org/2000/svg" xmlns:xlink="http://www.w3.org/1999/xlink"><style>
  * {
    fill: transparent !important;
    stroke: rgb(0, 37, 73) !important;
    stroke-width: 1 !important;
  }
  polygon:not(.cluster *, .node *, .edge *, text) {
    stroke: transparent !important;
  }
  text {
    font-size: 10px !important;
    font-family: monospace !important;
    fill: rgb(0, 37, 73) !important;
    stroke: transparent !important;
    transform: translateY(-0.5em);
  }
</style>
<g id="graph0" class="graph" transform="scale(1 1) rotate(0) translate(4 468.5)">
<title>G</title>
<polygon fill="white" stroke="none" points="-4,4 -4,-468.5 468.5,-468.5 468.5,4 -4,4"/>
<!-- Rust Structs -->
<g id="node1" class="node">
<title>Rust Structs</title>
<polygon fill="lightblue" stroke="black" points="282.38,-465 176.38,-465 176.38,-429 282.38,-429 282.38,-465"/>
<text xml:space="preserve" text-anchor="middle" x="229.38" y="-438.95" font-family="Times,serif" font-size="14.00">Rust Structs</text>
</g>
<!-- CmdLineParams Macro -->
<g id="node2" class="node">
<title>CmdLineParams Macro</title>
<polygon fill="lightblue" stroke="black" points="204.63,-382 46.13,-382 46.13,-346 204.63,-346 204.63,-382"/>
<text xml:space="preserve" text-anchor="middle" x="125.38" y="-355.95" font-family="Times,serif" font-size="14.00">CmdLineParams Macro</text>
</g>
<!-- Rust Structs&#45;&gt;CmdLineParams Macro -->
<g id="edge1" class="edge">
<title>Rust Structs&#45;&gt;CmdLineParams Macro</title>
<path fill="none" stroke="black" d="M207.07,-428.62C192.27,-417.09 172.63,-401.8 156.32,-389.1"/>
<polygon fill="black" stroke="black" points="158.89,-386.66 148.85,-383.28 154.59,-392.18 158.89,-386.66"/>
<text xml:space="preserve" text-anchor="middle" x="206.75" y="-396.95" font-family="Times,serif" font-size="14.00">derives</text>
</g>
<!-- CmdLineParamSet Macro -->
<g id="node3" class="node">
<title>CmdLineParamSet Macro</title>
<polygon fill="lightblue" stroke="black" points="420.13,-328 246.63,-328 246.63,-292 420.13,-292 420.13,-328"/>
<text xml:space="preserve" text-anchor="middle" x="333.38" y="-301.95" font-family="Times,serif" font-size="14.00">CmdLineParamSet Macro</text>
</g>
<!-- Rust Structs&#45;&gt;CmdLineParamSet Macro -->
<g id="edge2" class="edge">
<title>Rust Structs&#45;&gt;CmdLineParamSet Macro</title>
<path fill="none" stroke="black" d="M242.77,-428.63C260.63,-405.44 292.42,-364.17 313.2,-337.2"/>
<polygon fill="black" stroke="black" points="315.8,-339.56 319.13,-329.5 310.25,-335.29 315.8,-339.56"/>
<text xml:space="preserve" text-anchor="middle" x="290.12" y="-396.95" font-family="Times,serif" font-size="14.00">derives</text>
</g>
<!-- ToParams Trait -->
<g id="node4" class="node">
<title>ToParams Trait</title>
<polygon fill="lightblue" stroke="black" points="151.88,-274 30.88,-274 30.88,-238 151.88,-238 151.88,-274"/>
<text xml:space="preserve" text-anchor="middle" x="91.38" y="-247.95" font-family="Times,serif" font-size="14.00">ToParams Trait</text>
</g>
<!-- CmdLineParams Macro&#45;&gt;ToParams Trait -->
<g id="edge3" class="edge">
<title>CmdLineParams Macro&#45;&gt;ToParams Trait</title>
<path fill="none" stroke="black" d="M119.92,-345.97C114.67,-329.61 106.65,-304.59 100.44,-285.24"/>
<polygon fill="black" stroke="black" points="103.8,-284.23 97.41,-275.78 97.13,-286.37 103.8,-284.23"/>
<text xml:space="preserve" text-anchor="middle" x="150.92" y="-301.95" font-family="Times,serif" font-size="14.00">implements</text>
</g>
<!-- ToCmdLineParams Trait -->
<g id="node5" class="node">
<title>ToCmdLineParams Trait</title>
<polygon fill="lightblue" stroke="black" points="332.13,-109 158.63,-109 158.63,-73 332.13,-73 332.13,-109"/>
<text xml:space="preserve" text-anchor="middle" x="245.38" y="-82.95" font-family="Times,serif" font-size="14.00">ToCmdLineParams Trait</text>
</g>
<!-- CmdLineParamSet Macro&#45;&gt;ToCmdLineParams Trait -->
<g id="edge4" class="edge">
<title>CmdLineParamSet Macro&#45;&gt;ToCmdLineParams Trait</title>
<path fill="none" stroke="black" d="M327.93,-291.52C317.43,-258.6 292.98,-185.42 265.38,-126.75 264.23,-124.31 262.97,-121.8 261.66,-119.32"/>
<polygon fill="black" stroke="black" points="264.79,-117.74 256.87,-110.7 258.67,-121.14 264.79,-117.74"/>
<text xml:space="preserve" text-anchor="middle" x="340.37" y="-206.95" font-family="Times,serif" font-size="14.00">implements</text>
</g>
<!-- Param Objects -->
<g id="node6" class="node">
<title>Param Objects</title>
<polygon fill="lightblue" stroke="black" points="238.88,-192 87.88,-192 87.88,-156 238.88,-156 238.88,-192"/>
<text xml:space="preserve" text-anchor="middle" x="163.38" y="-171.2" font-family="Times,serif" font-size="14.00">Param Objects</text>
<text xml:space="preserve" text-anchor="middle" x="163.38" y="-160.7" font-family="Times,serif" font-size="14.00">(name, properties)</text>
</g>
<!-- ToParams Trait&#45;&gt;Param Objects -->
<g id="edge5" class="edge">
<title>ToParams Trait&#45;&gt;Param Objects</title>
<path fill="none" stroke="black" d="M107.01,-237.64C116.72,-226.84 129.4,-212.76 140.26,-200.69"/>
<polygon fill="black" stroke="black" points="142.69,-203.22 146.78,-193.45 137.49,-198.54 142.69,-203.22"/>
</g>
<!-- Cmd Line Arguments -->
<g id="node7" class="node">
<title>Cmd Line Arguments</title>
<polygon fill="lightblue" stroke="black" points="320.88,-36 169.88,-36 169.88,0 320.88,0 320.88,-36"/>
<text xml:space="preserve" text-anchor="middle" x="245.38" y="-15.2" font-family="Times,serif" font-size="14.00">Cmd Line Arguments</text>
<text xml:space="preserve" text-anchor="middle" x="245.38" y="-4.7" font-family="Times,serif" font-size="14.00">(Vec&lt;String&gt;)</text>
</g>
<!-- ToCmdLineParams Trait&#45;&gt;Cmd Line Arguments -->
<g id="edge7" class="edge">
<title>ToCmdLineParams Trait&#45;&gt;Cmd Line Arguments</title>
<path fill="none" stroke="black" d="M245.38,-72.81C245.38,-65.23 245.38,-56.1 245.38,-47.54"/>
<polygon fill="black" stroke="black" points="248.88,-47.54 245.38,-37.54 241.88,-47.54 248.88,-47.54"/>
</g>
<!-- Param Objects&#45;&gt;ToCmdLineParams Trait -->
<g id="edge6" class="edge">
<title>Param Objects&#45;&gt;ToCmdLineParams Trait</title>
<path fill="none" stroke="black" d="M180.77,-155.82C192.11,-144.62 207.1,-129.81 219.79,-117.28"/>
<polygon fill="black" stroke="black" points="222,-120.01 226.66,-110.5 217.09,-115.03 222,-120.01"/>
<text xml:space="preserve" text-anchor="middle" x="235.54" y="-123.95" font-family="Times,serif" font-size="14.00">used by</text>
</g>
</g>
</svg>
