<?xml version="1.0" encoding="UTF-8" standalone="no"?>
<!DOCTYPE svg PUBLIC "-//W3C//DTD SVG 1.1//EN"
 "http://www.w3.org/Graphics/SVG/1.1/DTD/svg11.dtd">
<!-- Generated by graphviz version 2.44.1 (20201121.0304)
 -->
<!-- Title: G Pages: 1 -->
<svg width="543pt" height="562pt"
 viewBox="0.00 0.00 543.00 562.00" xmlns="http://www.w3.org/2000/svg" xmlns:xlink="http://www.w3.org/1999/xlink"><style>
  * {
    fill: transparent !important;
    stroke: rgb(0, 37, 73) !important;
    stroke-width: 1 !important;
  }
  polygon:not(.cluster *, .node *, .edge *, text) {
    stroke: transparent !important;
  }
  text {
    font-size: 10px !important;
    font-family: monospace !important;
    fill: rgb(0, 37, 73) !important;
    stroke: transparent !important;
    transform: translateY(-0.5em);
  }
</style>
<g id="graph0" class="graph" transform="scale(1 1) rotate(0) translate(4 557.95)">
<title>G</title>
<polygon fill="#fdfdfd" stroke="none" points="-4,4 -4,-557.95 539.45,-557.95 539.45,4 -4,4"/>
<text xml:space="preserve" text-anchor="middle" x="267.73" y="4.5" font-family="Arial" font-size="20.00">Kuasar System Architecture Overview</text>
<!-- Containerd -->
<g id="node1" class="node">
<title>Containerd</title>
<polygon fill="lightblue" stroke="black" points="452.95,-551.15 334.75,-551.15 334.75,-511.85 452.95,-511.85 452.95,-551.15"/>
<text xml:space="preserve" text-anchor="middle" x="393.85" y="-523.45" font-family="Arial" font-size="14.00" fill="white">Containerd</text>
</g>
<!-- Kuasar Shim Layer -->
<g id="node2" class="node">
<title>Kuasar Shim Layer</title>
<polygon fill="lightblue" stroke="black" points="505.45,-464.4 282.25,-464.4 282.25,-414.6 505.45,-414.6 505.45,-464.4"/>
<text xml:space="preserve" text-anchor="middle" x="393.85" y="-436.7" font-family="Arial" font-size="14.00">Kuasar Shim Layer</text>
<text xml:space="preserve" text-anchor="middle" x="393.85" y="-426.2" font-family="Arial" font-size="14.00">(CRI Runtime V2 Backend)</text>
</g>
<!-- Containerd&#45;&gt;Kuasar Shim Layer -->
<g id="edge1" class="edge">
<title>Containerd&#45;&gt;Kuasar Shim Layer</title>
<path fill="none" stroke="#333333" stroke-width="2" d="M393.85,-511.54C393.85,-511.54 393.85,-475.72 393.85,-475.72"/>
<polygon fill="#333333" stroke="#333333" stroke-width="2" points="396.65,-475.72 393.85,-467.72 391.05,-475.72 396.65,-475.72"/>
</g>
<!-- Kuasar Sandboxers -->
<g id="node3" class="node">
<title>Kuasar Sandboxers</title>
<polygon fill="lightblue" stroke="black" points="535.45,-366.4 252.25,-366.4 252.25,-316.6 535.45,-316.6 535.45,-366.4"/>
<text xml:space="preserve" text-anchor="middle" x="393.85" y="-338.7" font-family="Arial" font-size="14.00">Kuasar Sandboxers</text>
<text xml:space="preserve" text-anchor="middle" x="393.85" y="-328.2" font-family="Arial" font-size="14.00">(VMM, Quark, Wasm, runC Daemons)</text>
</g>
<!-- Kuasar Shim Layer&#45;&gt;Kuasar Sandboxers -->
<g id="edge2" class="edge">
<title>Kuasar Shim Layer&#45;&gt;Kuasar Sandboxers</title>
<path fill="none" stroke="#333333" stroke-width="2" d="M393.85,-414.26C393.85,-414.26 393.85,-377.68 393.85,-377.68"/>
<polygon fill="#333333" stroke="#333333" stroke-width="2" points="396.65,-377.68 393.85,-369.68 391.05,-377.68 396.65,-377.68"/>
</g>
<!-- Kuasar Sandboxes -->
<g id="node4" class="node">
<title>Kuasar Sandboxes</title>
<polygon fill="lightblue" stroke="black" points="365.7,-268.4 0,-268.4 0,-218.6 365.7,-218.6 365.7,-268.4"/>
<text xml:space="preserve" text-anchor="middle" x="182.85" y="-240.7" font-family="Arial" font-size="14.00">Kuasar Sandboxes</text>
<text xml:space="preserve" text-anchor="middle" x="182.85" y="-230.2" font-family="Arial" font-size="14.00">(MicroVM, App Kernel, Wasm, runC Instances)</text>
</g>
<!-- Kuasar Sandboxers&#45;&gt;Kuasar Sandboxes -->
<g id="edge3" class="edge">
<title>Kuasar Sandboxers&#45;&gt;Kuasar Sandboxes</title>
<path fill="none" stroke="#333333" stroke-width="2" d="M308.98,-316.26C308.98,-316.26 308.98,-279.68 308.98,-279.68"/>
<polygon fill="#333333" stroke="#333333" stroke-width="2" points="311.78,-279.68 308.98,-271.68 306.18,-279.68 311.78,-279.68"/>
</g>
<!-- Host/Guest System Resources -->
<g id="node5" class="node">
<title>Host/Guest System Resources</title>
<polygon fill="lightblue" stroke="black" points="486.95,-71.4 158.75,-71.4 158.75,-21.6 486.95,-21.6 486.95,-71.4"/>
<text xml:space="preserve" text-anchor="middle" x="322.85" y="-43.7" font-family="Arial" font-size="14.00">Host/Guest System Resources</text>
<text xml:space="preserve" text-anchor="middle" x="322.85" y="-33.2" font-family="Arial" font-size="14.00">(Kernel, Filesystem, Network, Devices)</text>
</g>
<!-- Kuasar Sandboxers&#45;&gt;Host/Guest System Resources -->
<g id="edge4" class="edge">
<title>Kuasar Sandboxers&#45;&gt;Host/Guest System Resources</title>
<path fill="none" stroke="#333333" stroke-width="2" d="M445.58,-316.35C445.58,-316.35 445.58,-82.61 445.58,-82.61"/>
<polygon fill="#333333" stroke="#333333" stroke-width="2" points="448.38,-82.61 445.58,-74.61 442.78,-82.61 448.38,-82.61"/>
</g>
<!-- Kuasar Task Services -->
<g id="node6" class="node">
<title>Kuasar Task Services</title>
<polygon fill="lightblue" stroke="black" points="404.2,-170.4 23.5,-170.4 23.5,-120.6 404.2,-120.6 404.2,-170.4"/>
<text xml:space="preserve" text-anchor="middle" x="213.85" y="-142.7" font-family="Arial" font-size="14.00">Kuasar Task Services</text>
<text xml:space="preserve" text-anchor="middle" x="213.85" y="-132.2" font-family="Arial" font-size="14.00">(vmm&#45;task, Wasm Runtimes, Quark Binary, runC)</text>
</g>
<!-- Kuasar Sandboxes&#45;&gt;Kuasar Task Services -->
<g id="edge5" class="edge">
<title>Kuasar Sandboxes&#45;&gt;Kuasar Task Services</title>
<path fill="none" stroke="#333333" stroke-width="2" d="M194.6,-218.26C194.6,-218.26 194.6,-181.68 194.6,-181.68"/>
<polygon fill="#333333" stroke="#333333" stroke-width="2" points="197.4,-181.68 194.6,-173.68 191.8,-181.68 197.4,-181.68"/>
</g>
<!-- Kuasar Task Services&#45;&gt;Kuasar Sandboxers -->
<g id="edge7" class="edge">
<title>Kuasar Task Services&#45;&gt;Kuasar Sandboxers</title>
<path fill="none" stroke="#333333" stroke-width="2" d="M384.95,-181.75C384.95,-181.75 384.95,-305.35 384.95,-305.35"/>
<polygon fill="#333333" stroke="#333333" stroke-width="2" points="387.75,-181.75 384.95,-173.75 382.15,-181.75 387.75,-181.75"/>
<polygon fill="#333333" stroke="#333333" stroke-width="2" points="382.15,-305.35 384.95,-313.35 387.75,-305.35 382.15,-305.35"/>
</g>
<!-- Kuasar Task Services&#45;&gt;Host/Guest System Resources -->
<g id="edge6" class="edge">
<title>Kuasar Task Services&#45;&gt;Host/Guest System Resources</title>
<path fill="none" stroke="#333333" stroke-width="2" d="M281.47,-120.26C281.47,-120.26 281.47,-82.72 281.47,-82.72"/>
<polygon fill="#333333" stroke="#333333" stroke-width="2" points="284.28,-82.72 281.48,-74.72 278.68,-82.72 284.28,-82.72"/>
</g>
</g>
</svg>
