<?xml version="1.0" encoding="UTF-8" standalone="no"?>
<!DOCTYPE svg PUBLIC "-//W3C//DTD SVG 1.1//EN"
 "http://www.w3.org/Graphics/SVG/1.1/DTD/svg11.dtd">
<!-- Generated by graphviz version 2.44.1 (20201121.0304)
 -->
<!-- Title: G Pages: 1 -->
<svg width="292pt" height="292pt"
 viewBox="0.00 0.00 292.00 292.00" xmlns="http://www.w3.org/2000/svg" xmlns:xlink="http://www.w3.org/1999/xlink"><style>
  * {
    fill: transparent !important;
    stroke: rgb(0, 37, 73) !important;
    stroke-width: 1 !important;
  }
  polygon:not(.cluster *, .node *, .edge *, text) {
    stroke: transparent !important;
  }
  text {
    font-size: 10px !important;
    font-family: monospace !important;
    fill: rgb(0, 37, 73) !important;
    stroke: transparent !important;
    transform: translateY(-0.5em);
  }
</style>
<g id="graph0" class="graph" transform="scale(1 1) rotate(0) translate(4 287.5)">
<title>G</title>
<polygon fill="white" stroke="none" points="-4,4 -4,-287.5 287.5,-287.5 287.5,4 -4,4"/>
<!-- Containerd -->
<g id="node1" class="node">
<title>Containerd</title>
<polygon fill="lightblue" stroke="black" points="187.42,-284 96.42,-284 96.42,-248 187.42,-248 187.42,-284"/>
<text xml:space="preserve" text-anchor="middle" x="141.92" y="-257.95" font-family="Times,serif" font-size="14.00">Containerd</text>
</g>
<!-- SandboxAPI -->
<g id="node2" class="node">
<title>SandboxAPI</title>
<polygon fill="lightblue" stroke="black" points="128.17,-201 29.67,-201 29.67,-165 128.17,-165 128.17,-201"/>
<text xml:space="preserve" text-anchor="middle" x="78.92" y="-174.95" font-family="Times,serif" font-size="14.00">Sandbox API</text>
</g>
<!-- Containerd&#45;&gt;SandboxAPI -->
<g id="edge1" class="edge">
<title>Containerd&#45;&gt;SandboxAPI</title>
<path fill="none" stroke="black" d="M128.55,-247.82C120.09,-236.94 108.98,-222.66 99.42,-210.36"/>
<polygon fill="black" stroke="black" points="102.31,-208.37 93.4,-202.63 96.78,-212.67 102.31,-208.37"/>
<text xml:space="preserve" text-anchor="middle" x="127.3" y="-215.95" font-family="Times,serif" font-size="14.00">uses</text>
</g>
<!-- Shim -->
<g id="node4" class="node">
<title>Shim</title>
<polygon fill="lightblue" stroke="black" points="254.17,-201 155.67,-201 155.67,-165 254.17,-165 254.17,-201"/>
<text xml:space="preserve" text-anchor="middle" x="204.92" y="-174.95" font-family="Times,serif" font-size="14.00">Kuasar Shim</text>
</g>
<!-- Containerd&#45;&gt;Shim -->
<g id="edge3" class="edge">
<title>Containerd&#45;&gt;Shim</title>
<path fill="none" stroke="black" d="M155.28,-247.82C163.74,-236.94 174.85,-222.66 184.41,-210.36"/>
<polygon fill="black" stroke="black" points="187.05,-212.67 190.43,-202.63 181.53,-208.37 187.05,-212.67"/>
<text xml:space="preserve" text-anchor="middle" x="207.19" y="-215.95" font-family="Times,serif" font-size="14.00">talks to</text>
</g>
<!-- Sandboxers -->
<g id="node3" class="node">
<title>Sandboxers</title>
<polygon fill="lightblue" stroke="black" points="273.67,-119 10.17,-119 10.17,-83 273.67,-83 273.67,-119"/>
<text xml:space="preserve" text-anchor="middle" x="141.92" y="-98.2" font-family="Times,serif" font-size="14.00">Kuasar Sandboxers</text>
<text xml:space="preserve" text-anchor="middle" x="141.92" y="-87.7" font-family="Times,serif" font-size="14.00">(MicroVM, App Kernel, Wasm, runC)</text>
</g>
<!-- SandboxAPI&#45;&gt;Sandboxers -->
<g id="edge2" class="edge">
<title>SandboxAPI&#45;&gt;Sandboxers</title>
<path fill="none" stroke="black" d="M92.59,-164.64C101.01,-153.95 111.96,-140.04 121.41,-128.04"/>
<polygon fill="black" stroke="black" points="123.9,-130.54 127.34,-120.51 118.4,-126.2 123.9,-130.54"/>
</g>
<!-- RuntimeAPI -->
<g id="node5" class="node">
<title>RuntimeAPI</title>
<polygon fill="lightblue" stroke="black" points="191.17,-36 92.67,-36 92.67,0 191.17,0 191.17,-36"/>
<text xml:space="preserve" text-anchor="middle" x="141.92" y="-9.95" font-family="Times,serif" font-size="14.00">Runtime API</text>
</g>
<!-- Sandboxers&#45;&gt;RuntimeAPI -->
<g id="edge5" class="edge">
<title>Sandboxers&#45;&gt;RuntimeAPI</title>
<path fill="none" stroke="black" d="M141.92,-82.82C141.92,-72.69 141.92,-59.6 141.92,-47.92"/>
<polygon fill="black" stroke="black" points="145.42,-47.95 141.92,-37.95 138.42,-47.95 145.42,-47.95"/>
<text xml:space="preserve" text-anchor="middle" x="179.42" y="-50.95" font-family="Times,serif" font-size="14.00">implements</text>
</g>
<!-- Shim&#45;&gt;Sandboxers -->
<g id="edge4" class="edge">
<title>Shim&#45;&gt;Sandboxers</title>
<path fill="none" stroke="black" d="M191.25,-164.64C182.82,-153.95 171.87,-140.04 162.42,-128.04"/>
<polygon fill="black" stroke="black" points="165.43,-126.2 156.49,-120.51 159.93,-130.54 165.43,-126.2"/>
<text xml:space="preserve" text-anchor="middle" x="218.44" y="-133.95" font-family="Times,serif" font-size="14.00">forwards to</text>
</g>
</g>
</svg>
