<?xml version="1.0" encoding="UTF-8" standalone="no"?>
<!DOCTYPE svg PUBLIC "-//W3C//DTD SVG 1.1//EN"
 "http://www.w3.org/Graphics/SVG/1.1/DTD/svg11.dtd">
<!-- Generated by graphviz version 2.44.1 (20201121.0304)
 -->
<!-- Title: G Pages: 1 -->
<svg width="489pt" height="374pt"
 viewBox="0.00 0.00 489.00 374.00" xmlns="http://www.w3.org/2000/svg" xmlns:xlink="http://www.w3.org/1999/xlink"><style>
  * {
    fill: transparent !important;
    stroke: rgb(0, 37, 73) !important;
    stroke-width: 1 !important;
  }
  polygon:not(.cluster *, .node *, .edge *, text) {
    stroke: transparent !important;
  }
  text {
    font-size: 10px !important;
    font-family: monospace !important;
    fill: rgb(0, 37, 73) !important;
    stroke: transparent !important;
    transform: translateY(-0.5em);
  }
</style>
<g id="graph0" class="graph" transform="scale(1 1) rotate(0) translate(4 370)">
<title>G</title>
<polygon fill="white" stroke="none" points="-4,4 -4,-370 484.72,-370 484.72,4 -4,4"/>
<!-- Containerd -->
<g id="node1" class="node">
<title>Containerd</title>
<polygon fill="lightblue" stroke="black" points="201.83,-366 110.83,-366 110.83,-330 201.83,-330 201.83,-366"/>
<text xml:space="preserve" text-anchor="middle" x="156.33" y="-339.95" font-family="Times,serif" font-size="14.00">Containerd</text>
</g>
<!-- Sandbox API -->
<g id="node2" class="node">
<title>Sandbox API</title>
<polygon fill="lightblue" stroke="black" points="205.58,-284 107.08,-284 107.08,-248 205.58,-248 205.58,-284"/>
<text xml:space="preserve" text-anchor="middle" x="156.33" y="-257.95" font-family="Times,serif" font-size="14.00">Sandbox API</text>
</g>
<!-- Containerd&#45;&gt;Sandbox API -->
<g id="edge1" class="edge">
<title>Containerd&#45;&gt;Sandbox API</title>
<path fill="none" stroke="black" d="M156.33,-329.64C156.33,-319.68 156.33,-306.93 156.33,-295.54"/>
<polygon fill="black" stroke="black" points="159.83,-295.84 156.33,-285.84 152.83,-295.84 159.83,-295.84"/>
<text xml:space="preserve" text-anchor="middle" x="171.33" y="-298.95" font-family="Times,serif" font-size="14.00">uses</text>
</g>
<!-- Shim Process (1:1) -->
<g id="node3" class="node">
<title>Shim Process (1:1)</title>
<polygon fill="lightblue" stroke="black" points="148.83,-201 27.83,-201 27.83,-165 148.83,-165 148.83,-201"/>
<text xml:space="preserve" text-anchor="middle" x="88.33" y="-180.2" font-family="Times,serif" font-size="14.00">Shim Processes</text>
<text xml:space="preserve" text-anchor="middle" x="88.33" y="-169.7" font-family="Times,serif" font-size="14.00">(vmm, wasm)</text>
</g>
<!-- Sandbox API&#45;&gt;Shim Process (1:1) -->
<g id="edge2" class="edge">
<title>Sandbox API&#45;&gt;Shim Process (1:1)</title>
<path fill="none" stroke="black" d="M125.56,-247.53C118.37,-242.36 111.24,-236.2 105.83,-229.25 101.82,-224.1 98.63,-217.92 96.14,-211.81"/>
<polygon fill="black" stroke="black" points="99.5,-210.81 92.87,-202.54 92.89,-213.14 99.5,-210.81"/>
<text xml:space="preserve" text-anchor="middle" x="184.58" y="-215.95" font-family="Times,serif" font-size="14.00">forwards to (shim v2)</text>
</g>
<!-- Sandboxers (1:N) -->
<g id="node4" class="node">
<title>Sandboxers (1:N)</title>
<polygon fill="lightblue" stroke="black" points="281.33,-119 85.33,-119 85.33,-83 281.33,-83 281.33,-119"/>
<text xml:space="preserve" text-anchor="middle" x="183.33" y="-98.2" font-family="Times,serif" font-size="14.00">Sandboxers</text>
<text xml:space="preserve" text-anchor="middle" x="183.33" y="-87.7" font-family="Times,serif" font-size="14.00">(vmm, quark, wasm, runC)</text>
</g>
<!-- Sandbox API&#45;&gt;Sandboxers (1:N) -->
<g id="edge3" class="edge">
<title>Sandbox API&#45;&gt;Sandboxers (1:N)</title>
<path fill="none" stroke="black" d="M205.97,-261.04C227.24,-256.6 250.17,-247.53 263.33,-229.25 288.28,-194.6 248.66,-152.26 216.81,-126.22"/>
<polygon fill="black" stroke="black" points="219.3,-123.72 209.29,-120.26 214.96,-129.21 219.3,-123.72"/>
<text xml:space="preserve" text-anchor="middle" x="375.72" y="-174.95" font-family="Times,serif" font-size="14.00">forwards to (containerd 2.0)</text>
</g>
<!-- Shim Process (1:1)&#45;&gt;Sandboxers (1:N) -->
<g id="edge4" class="edge">
<title>Shim Process (1:1)&#45;&gt;Sandboxers (1:N)</title>
<path fill="none" stroke="black" d="M108.94,-164.64C122.14,-153.53 139.46,-138.94 154.07,-126.64"/>
<polygon fill="black" stroke="black" points="156.2,-129.42 161.6,-120.3 151.7,-124.06 156.2,-129.42"/>
<text xml:space="preserve" text-anchor="middle" x="182.77" y="-133.95" font-family="Times,serif" font-size="14.00">forwards to</text>
</g>
<!-- Sandboxes -->
<g id="node5" class="node">
<title>Sandboxes</title>
<polygon fill="lightblue" stroke="black" points="315.08,-36 51.58,-36 51.58,0 315.08,0 315.08,-36"/>
<text xml:space="preserve" text-anchor="middle" x="183.33" y="-15.2" font-family="Times,serif" font-size="14.00">Sandboxes</text>
<text xml:space="preserve" text-anchor="middle" x="183.33" y="-4.7" font-family="Times,serif" font-size="14.00">(MicroVM, App Kernel, Wasm, runC)</text>
</g>
<!-- Sandboxers (1:N)&#45;&gt;Sandboxes -->
<g id="edge5" class="edge">
<title>Sandboxers (1:N)&#45;&gt;Sandboxes</title>
<path fill="none" stroke="black" d="M183.33,-82.82C183.33,-72.69 183.33,-59.6 183.33,-47.92"/>
<polygon fill="black" stroke="black" points="186.83,-47.95 183.33,-37.95 179.83,-47.95 186.83,-47.95"/>
<text xml:space="preserve" text-anchor="middle" x="209.58" y="-50.95" font-family="Times,serif" font-size="14.00">manages</text>
</g>
</g>
</svg>
