<?xml version="1.0" encoding="UTF-8" standalone="no"?>
<!DOCTYPE svg PUBLIC "-//W3C//DTD SVG 1.1//EN"
 "http://www.w3.org/Graphics/SVG/1.1/DTD/svg11.dtd">
<!-- Generated by graphviz version 2.44.1 (20201121.0304)
 -->
<!-- Title: G Pages: 1 -->
<svg width="374pt" height="374pt"
 viewBox="0.00 0.00 374.00 374.00" xmlns="http://www.w3.org/2000/svg" xmlns:xlink="http://www.w3.org/1999/xlink"><style>
  * {
    fill: transparent !important;
    stroke: rgb(0, 37, 73) !important;
    stroke-width: 1 !important;
  }
  polygon:not(.cluster *, .node *, .edge *, text) {
    stroke: transparent !important;
  }
  text {
    font-size: 10px !important;
    font-family: monospace !important;
    fill: rgb(0, 37, 73) !important;
    stroke: transparent !important;
    transform: translateY(-0.5em);
  }
</style>
<g id="graph0" class="graph" transform="scale(1 1) rotate(0) translate(4 370)">
<title>G</title>
<polygon fill="white" stroke="none" points="-4,4 -4,-370 370,-370 370,4 -4,4"/>
<!-- Containerd -->
<g id="node1" class="node">
<title>Containerd</title>
<polygon fill="lightblue" stroke="black" points="205.4,-366 114.4,-366 114.4,-330 205.4,-330 205.4,-366"/>
<text xml:space="preserve" text-anchor="middle" x="159.9" y="-339.95" font-family="Times,serif" font-size="14.00">Containerd</text>
</g>
<!-- ContainerdAPI -->
<g id="node2" class="node">
<title>ContainerdAPI</title>
<polygon fill="lightblue" stroke="black" points="149.4,-284 28.4,-284 28.4,-248 149.4,-248 149.4,-284"/>
<text xml:space="preserve" text-anchor="middle" x="88.9" y="-257.95" font-family="Times,serif" font-size="14.00">Containerd API</text>
</g>
<!-- Containerd&#45;&gt;ContainerdAPI -->
<g id="edge1" class="edge">
<title>Containerd&#45;&gt;ContainerdAPI</title>
<path fill="none" stroke="black" d="M144.5,-329.64C134.91,-318.84 122.42,-304.76 111.7,-292.69"/>
<polygon fill="black" stroke="black" points="114.54,-290.61 105.28,-285.46 109.3,-295.26 114.54,-290.61"/>
<text xml:space="preserve" text-anchor="middle" x="143.65" y="-298.95" font-family="Times,serif" font-size="14.00">Uses</text>
</g>
<!-- Shim -->
<g id="node3" class="node">
<title>Shim</title>
<polygon fill="lightblue" stroke="black" points="189.15,-201 90.65,-201 90.65,-165 189.15,-165 189.15,-201"/>
<text xml:space="preserve" text-anchor="middle" x="139.9" y="-174.95" font-family="Times,serif" font-size="14.00">Kuasar Shim</text>
</g>
<!-- Containerd&#45;&gt;Shim -->
<g id="edge5" class="edge">
<title>Containerd&#45;&gt;Shim</title>
<path fill="none" stroke="black" stroke-dasharray="5,2" d="M173.11,-329.84C191.05,-304.29 218.62,-255.32 197.9,-218.75 195.81,-215.06 193.16,-211.72 190.14,-208.7"/>
<polygon fill="black" stroke="black" points="192.52,-206.14 182.6,-202.43 188.04,-211.52 192.52,-206.14"/>
<text xml:space="preserve" text-anchor="middle" x="276.54" y="-257.95" font-family="Times,serif" font-size="14.00">Runtime interaction</text>
</g>
<!-- ContainerdAPI&#45;&gt;Shim -->
<g id="edge2" class="edge">
<title>ContainerdAPI&#45;&gt;Shim</title>
<path fill="none" stroke="black" d="M79.02,-247.83C75.15,-238.71 72.73,-227.58 77.9,-218.75 80.15,-214.91 83,-211.46 86.24,-208.37"/>
<polygon fill="black" stroke="black" points="88.14,-211.33 93.76,-202.35 83.77,-205.86 88.14,-211.33"/>
<text xml:space="preserve" text-anchor="middle" x="137.9" y="-215.95" font-family="Times,serif" font-size="14.00">Communicates via</text>
</g>
<!-- SandboxAPI -->
<g id="node4" class="node">
<title>SandboxAPI</title>
<polygon fill="lightblue" stroke="black" points="144.15,-119 45.65,-119 45.65,-83 144.15,-83 144.15,-119"/>
<text xml:space="preserve" text-anchor="middle" x="94.9" y="-92.95" font-family="Times,serif" font-size="14.00">Sandbox API</text>
</g>
<!-- Shim&#45;&gt;SandboxAPI -->
<g id="edge3" class="edge">
<title>Shim&#45;&gt;SandboxAPI</title>
<path fill="none" stroke="black" d="M90.42,-169.16C79.95,-164.07 70.17,-157.02 63.9,-147.25 59.89,-141.01 61.2,-134.37 64.95,-128.16"/>
<polygon fill="black" stroke="black" points="67.44,-130.65 70.93,-120.64 61.96,-126.29 67.44,-130.65"/>
<text xml:space="preserve" text-anchor="middle" x="138.9" y="-133.95" font-family="Times,serif" font-size="14.00">Forwards requests to</text>
</g>
<!-- Sandboxers -->
<g id="node5" class="node">
<title>Sandboxers</title>
<polygon fill="lightblue" stroke="black" points="355.9,-36 9.9,-36 9.9,0 355.9,0 355.9,-36"/>
<text xml:space="preserve" text-anchor="middle" x="182.9" y="-9.95" font-family="Times,serif" font-size="14.00">Sandboxers (MicroVM, App Kernel, Wasm, runC)</text>
</g>
<!-- Shim&#45;&gt;Sandboxers -->
<g id="edge6" class="edge">
<title>Shim&#45;&gt;Sandboxers</title>
<path fill="none" stroke="black" stroke-dasharray="5,2" d="M189.63,-168.12C199.25,-163.12 208.12,-156.36 213.9,-147.25 233.72,-116.05 216.23,-73.22 200.6,-45.82"/>
<polygon fill="black" stroke="black" points="203.71,-44.2 195.56,-37.43 197.71,-47.8 203.71,-44.2"/>
<text xml:space="preserve" text-anchor="middle" x="290.25" y="-92.95" font-family="Times,serif" font-size="14.00">Sandbox management</text>
</g>
<!-- SandboxAPI&#45;&gt;Sandboxers -->
<g id="edge4" class="edge">
<title>SandboxAPI&#45;&gt;Sandboxers</title>
<path fill="none" stroke="black" d="M113.56,-82.82C125.85,-71.52 142.13,-56.53 155.83,-43.92"/>
<polygon fill="black" stroke="black" points="157.86,-46.81 162.85,-37.46 153.12,-41.65 157.86,-46.81"/>
<text xml:space="preserve" text-anchor="middle" x="170.42" y="-50.95" font-family="Times,serif" font-size="14.00">Manages</text>
</g>
</g>
</svg>
