<?xml version="1.0" encoding="UTF-8" standalone="no"?>
<!DOCTYPE svg PUBLIC "-//W3C//DTD SVG 1.1//EN"
 "http://www.w3.org/Graphics/SVG/1.1/DTD/svg11.dtd">
<!-- Generated by graphviz version 2.44.1 (20201121.0304)
 -->
<!-- Title: G Pages: 1 -->
<svg width="857pt" height="802pt"
 viewBox="0.00 0.00 857.00 802.00" xmlns="http://www.w3.org/2000/svg" xmlns:xlink="http://www.w3.org/1999/xlink"><style>
  * {
    fill: transparent !important;
    stroke: rgb(0, 37, 73) !important;
    stroke-width: 1 !important;
  }
  polygon:not(.cluster *, .node *, .edge *, text) {
    stroke: transparent !important;
  }
  text {
    font-size: 10px !important;
    font-family: monospace !important;
    fill: rgb(0, 37, 73) !important;
    stroke: transparent !important;
    transform: translateY(-0.5em);
  }
</style>
<g id="graph0" class="graph" transform="scale(1 1) rotate(0) translate(4 797.5)">
<title>G</title>
<polygon fill="white" stroke="none" points="-4,4 -4,-797.5 853.35,-797.5 853.35,4 -4,4"/>
<!-- Makefile -->
<g id="node1" class="node">
<title>Makefile</title>
<polygon fill="lightblue" stroke="black" stroke-width="2" points="601.5,-775 390.5,-775 390.5,-739 601.5,-739 601.5,-775"/>
<text xml:space="preserve" text-anchor="middle" x="496" y="-754.2" font-family="Times,serif" font-size="14.00">Makefile</text>
<text xml:space="preserve" text-anchor="middle" x="496" y="-743.7" font-family="Times,serif" font-size="14.00">(Core Build Orchestration)</text>
</g>
<!-- ConfigurableVariables -->
<g id="node2" class="node">
<title>ConfigurableVariables</title>
<polygon fill="lightblue" stroke="black" stroke-width="2" points="256,-608 0,-608 0,-572 256,-572 256,-608"/>
<text xml:space="preserve" text-anchor="middle" x="128" y="-587.2" font-family="Times,serif" font-size="14.00">Configurable Variables</text>
<text xml:space="preserve" text-anchor="middle" x="128" y="-576.7" font-family="Times,serif" font-size="14.00">(HYPERVISOR, WASM_RUNTIME, etc.)</text>
</g>
<!-- Makefile&#45;&gt;ConfigurableVariables -->
<g id="edge1" class="edge">
<title>Makefile&#45;&gt;ConfigurableVariables</title>
<path fill="none" stroke="black" stroke-width="1.5" d="M455.92,-738.03C388.59,-707.84 252.9,-647 178.92,-613.83"/>
<polygon fill="black" stroke="black" stroke-width="1.5" points="180.66,-610.78 170.11,-609.88 177.8,-617.16 180.66,-610.78"/>
<text xml:space="preserve" text-anchor="middle" x="327" y="-664.95" font-family="Times,serif" font-size="14.00">uses</text>
</g>
<!-- BuildScripts -->
<g id="node3" class="node">
<title>BuildScripts</title>
<polygon fill="lightblue" stroke="black" stroke-width="2" points="717.75,-608 274.25,-608 274.25,-572 717.75,-572 717.75,-608"/>
<text xml:space="preserve" text-anchor="middle" x="496" y="-587.2" font-family="Times,serif" font-size="14.00">Build Scripts</text>
<text xml:space="preserve" text-anchor="middle" x="496" y="-576.7" font-family="Times,serif" font-size="14.00">(scripts/build/, vmm/scripts/image/, vmm/scripts/kernel/)</text>
</g>
<!-- Makefile&#45;&gt;BuildScripts -->
<g id="edge2" class="edge">
<title>Makefile&#45;&gt;BuildScripts</title>
<path fill="none" stroke="black" stroke-width="1.5" d="M496,-738.03C496,-709.88 496,-655.1 496,-620.94"/>
<polygon fill="black" stroke="black" stroke-width="1.5" points="499.5,-621.22 496,-611.22 492.5,-621.22 499.5,-621.22"/>
<text xml:space="preserve" text-anchor="middle" x="522.25" y="-664.95" font-family="Times,serif" font-size="14.00">invokes</text>
</g>
<!-- InstallScripts -->
<g id="node4" class="node">
<title>InstallScripts</title>
<polygon fill="lightblue" stroke="black" stroke-width="2" points="793.5,-498 642.5,-498 642.5,-462 793.5,-462 793.5,-498"/>
<text xml:space="preserve" text-anchor="middle" x="718" y="-477.2" font-family="Times,serif" font-size="14.00">Install Scripts</text>
<text xml:space="preserve" text-anchor="middle" x="718" y="-466.7" font-family="Times,serif" font-size="14.00">(scripts/install/)</text>
</g>
<!-- Makefile&#45;&gt;InstallScripts -->
<g id="edge3" class="edge">
<title>Makefile&#45;&gt;InstallScripts</title>
<path fill="none" stroke="black" stroke-width="1.5" d="M551.84,-738.07C607.56,-716.85 690.03,-675.59 727,-608 743.56,-577.73 736.58,-537.16 728.61,-510.1"/>
<polygon fill="black" stroke="black" stroke-width="1.5" points="732.03,-509.32 725.65,-500.87 725.37,-511.46 732.03,-509.32"/>
<text xml:space="preserve" text-anchor="middle" x="702.75" y="-664.95" font-family="Times,serif" font-size="14.00">invokes</text>
</g>
<!-- OutputBinaries -->
<g id="node5" class="node">
<title>OutputBinaries</title>
<polygon fill="lightblue" stroke="black" stroke-width="2" points="616.25,-389 487.75,-389 487.75,-353 616.25,-353 616.25,-389"/>
<text xml:space="preserve" text-anchor="middle" x="552" y="-362.95" font-family="Times,serif" font-size="14.00">Output Binaries</text>
</g>
<!-- BuildScripts&#45;&gt;OutputBinaries -->
<g id="edge4" class="edge">
<title>BuildScripts&#45;&gt;OutputBinaries</title>
<path fill="none" stroke="black" stroke-width="1.5" d="M500.58,-571.24C510.21,-533.95 532.6,-447.19 544.4,-401.44"/>
<polygon fill="black" stroke="black" stroke-width="1.5" points="547.76,-402.45 546.87,-391.9 540.98,-400.71 547.76,-402.45"/>
<text xml:space="preserve" text-anchor="middle" x="557.35" y="-471.95" font-family="Times,serif" font-size="14.00">produces</text>
</g>
<!-- SystemIntegration -->
<g id="node6" class="node">
<title>SystemIntegration</title>
<polygon fill="lightblue" stroke="black" stroke-width="2" points="783.5,-54 482.5,-54 482.5,-18 783.5,-18 783.5,-54"/>
<text xml:space="preserve" text-anchor="middle" x="633" y="-33.2" font-family="Times,serif" font-size="14.00">System Integration</text>
<text xml:space="preserve" text-anchor="middle" x="633" y="-22.7" font-family="Times,serif" font-size="14.00">(containerd, crictl, systemd services)</text>
</g>
<!-- InstallScripts&#45;&gt;SystemIntegration -->
<g id="edge5" class="edge">
<title>InstallScripts&#45;&gt;SystemIntegration</title>
<path fill="none" stroke="black" stroke-width="1.5" d="M715.99,-461.37C709.74,-408.4 689.15,-246.16 657,-114.75 653.01,-98.46 647.56,-80.55 642.86,-66.03"/>
<polygon fill="black" stroke="black" stroke-width="1.5" points="646.31,-65.3 639.85,-56.9 639.66,-67.49 646.31,-65.3"/>
<text xml:space="preserve" text-anchor="middle" x="770.6" y="-278.95" font-family="Times,serif" font-size="14.00">installs &amp; configures</text>
</g>
<!-- Sandboxers -->
<g id="node7" class="node">
<title>Sandboxers</title>
<polygon fill="lightblue" stroke="black" stroke-width="2" points="661,-222 465,-222 465,-186 661,-186 661,-222"/>
<text xml:space="preserve" text-anchor="middle" x="563" y="-201.2" font-family="Times,serif" font-size="14.00">Kuasar Sandboxers</text>
<text xml:space="preserve" text-anchor="middle" x="563" y="-190.7" font-family="Times,serif" font-size="14.00">(vmm, wasm, quark, runc)</text>
</g>
<!-- OutputBinaries&#45;&gt;Sandboxers -->
<g id="edge6" class="edge">
<title>OutputBinaries&#45;&gt;Sandboxers</title>
<path fill="none" stroke="black" stroke-width="1.5" d="M553.2,-352.03C555.07,-323.88 558.73,-269.1 561,-234.94"/>
<polygon fill="black" stroke="black" stroke-width="1.5" points="564.48,-235.43 561.65,-225.22 557.49,-234.96 564.48,-235.43"/>
<text xml:space="preserve" text-anchor="middle" x="591.58" y="-278.95" font-family="Times,serif" font-size="14.00">comprises</text>
</g>
<!-- Sandboxers&#45;&gt;SystemIntegration -->
<g id="edge7" class="edge">
<title>Sandboxers&#45;&gt;SystemIntegration</title>
<path fill="none" stroke="black" stroke-width="1.5" d="M570.49,-185.24C582.51,-156.73 606.23,-100.49 620.74,-66.07"/>
<polygon fill="black" stroke="black" stroke-width="1.5" points="623.91,-67.55 624.57,-56.98 617.46,-64.83 623.91,-67.55"/>
<text xml:space="preserve" text-anchor="middle" x="626.35" y="-111.95" font-family="Times,serif" font-size="14.00">used by</text>
</g>
</g>
</svg>
