<?xml version="1.0" encoding="UTF-8" standalone="no"?>
<!DOCTYPE svg PUBLIC "-//W3C//DTD SVG 1.1//EN"
 "http://www.w3.org/Graphics/SVG/1.1/DTD/svg11.dtd">
<!-- Generated by graphviz version 2.44.1 (20201121.0304)
 -->
<!-- Title: G Pages: 1 -->
<svg width="378pt" height="378pt"
 viewBox="0.00 0.00 378.00 378.00" xmlns="http://www.w3.org/2000/svg" xmlns:xlink="http://www.w3.org/1999/xlink"><style>
  * {
    fill: transparent !important;
    stroke: rgb(0, 37, 73) !important;
    stroke-width: 1 !important;
  }
  polygon:not(.cluster *, .node *, .edge *, text) {
    stroke: transparent !important;
  }
  text {
    font-size: 10px !important;
    font-family: monospace !important;
    fill: rgb(0, 37, 73) !important;
    stroke: transparent !important;
    transform: translateY(-0.5em);
  }
</style>
<g id="graph0" class="graph" transform="scale(1 1) rotate(0) translate(4 373.5)">
<title>G</title>
<polygon fill="white" stroke="none" points="-4,4 -4,-373.5 373.5,-373.5 373.5,4 -4,4"/>
<!-- containerd -->
<g id="node1" class="node">
<title>containerd</title>
<polygon fill="lightblue" stroke="black" points="301,-356 82.5,-356 82.5,-320 301,-320 301,-356"/>
<text xml:space="preserve" text-anchor="middle" x="191.75" y="-329.95" font-family="Times,serif" font-size="14.00">Containerd (CRI Runtime V2)</text>
</g>
<!-- Kuasar Shim -->
<g id="node2" class="node">
<title>Kuasar Shim</title>
<polygon fill="lightblue" stroke="black" points="271,-212 112.5,-212 112.5,-176 271,-176 271,-212"/>
<text xml:space="preserve" text-anchor="middle" x="191.75" y="-185.95" font-family="Times,serif" font-size="14.00">Kuasar Shim (Proxy)</text>
</g>
<!-- containerd&#45;&gt;Kuasar Shim -->
<g id="edge1" class="edge">
<title>containerd&#45;&gt;Kuasar Shim</title>
<path fill="none" stroke="black" d="M191.75,-319.59C191.75,-295.61 191.75,-252.14 191.75,-223.42"/>
<polygon fill="black" stroke="black" points="195.25,-223.62 191.75,-213.62 188.25,-223.62 195.25,-223.62"/>
<text xml:space="preserve" text-anchor="middle" x="278" y="-257.95" font-family="Times,serif" font-size="14.00">CRI Runtime V2 Requests</text>
</g>
<!-- Kuasar Sandboxers -->
<g id="node3" class="node">
<title>Kuasar Sandboxers</title>
<polygon fill="lightblue" stroke="black" points="143.5,-49 0,-49 0,-13 143.5,-13 143.5,-49"/>
<text xml:space="preserve" text-anchor="middle" x="71.75" y="-28.2" font-family="Times,serif" font-size="14.00">Kuasar Sandboxers</text>
<text xml:space="preserve" text-anchor="middle" x="71.75" y="-17.7" font-family="Times,serif" font-size="14.00">(VMM / Wasm)</text>
</g>
<!-- Kuasar Shim&#45;&gt;Kuasar Sandboxers -->
<g id="edge2" class="edge">
<title>Kuasar Shim&#45;&gt;Kuasar Sandboxers</title>
<path fill="none" stroke="black" d="M138.25,-175.51C113.95,-164.61 87.5,-147.91 73.25,-123.5 62.23,-104.61 62.62,-79.58 65.35,-60.48"/>
<polygon fill="black" stroke="black" points="68.79,-61.12 67.06,-50.67 61.89,-59.92 68.79,-61.12"/>
<text xml:space="preserve" text-anchor="middle" x="182" y="-110.2" font-family="Times,serif" font-size="14.00">Sandbox API</text>
<text xml:space="preserve" text-anchor="middle" x="182" y="-99.7" font-family="Times,serif" font-size="14.00">(VSock for VMM, UDS for Wasm)</text>
</g>
<!-- Kuasar Tasker -->
<g id="node4" class="node">
<title>Kuasar Tasker</title>
<polygon fill="lightblue" stroke="black" points="369.5,-49 256,-49 256,-13 369.5,-13 369.5,-49"/>
<text xml:space="preserve" text-anchor="middle" x="312.75" y="-28.2" font-family="Times,serif" font-size="14.00">Kuasar Tasker</text>
<text xml:space="preserve" text-anchor="middle" x="312.75" y="-17.7" font-family="Times,serif" font-size="14.00">(low&#45;level)</text>
</g>
<!-- Kuasar Shim&#45;&gt;Kuasar Tasker -->
<g id="edge3" class="edge">
<title>Kuasar Shim&#45;&gt;Kuasar Tasker</title>
<path fill="none" stroke="black" d="M228.44,-175.74C249.72,-163.91 275.28,-146.25 290.75,-123.5 303.4,-104.91 308.81,-79.85 311.1,-60.67"/>
<polygon fill="black" stroke="black" points="314.58,-61.1 312.04,-50.81 307.61,-60.44 314.58,-61.1"/>
<text xml:space="preserve" text-anchor="middle" x="331.17" y="-104.95" font-family="Times,serif" font-size="14.00">Task API</text>
</g>
</g>
</svg>
