<?xml version="1.0" encoding="UTF-8" standalone="no"?>
<!DOCTYPE svg PUBLIC "-//W3C//DTD SVG 1.1//EN"
 "http://www.w3.org/Graphics/SVG/1.1/DTD/svg11.dtd">
<!-- Generated by graphviz version 2.44.1 (20201121.0304)
 -->
<!-- Title: G Pages: 1 -->
<svg width="603pt" height="603pt"
 viewBox="0.00 0.00 603.00 603.00" xmlns="http://www.w3.org/2000/svg" xmlns:xlink="http://www.w3.org/1999/xlink"><style>
  * {
    fill: transparent !important;
    stroke: rgb(0, 37, 73) !important;
    stroke-width: 1 !important;
  }
  polygon:not(.cluster *, .node *, .edge *, text) {
    stroke: transparent !important;
  }
  text {
    font-size: 10px !important;
    font-family: monospace !important;
    fill: rgb(0, 37, 73) !important;
    stroke: transparent !important;
    transform: translateY(-0.5em);
  }
</style>
<g id="graph0" class="graph" transform="scale(1 1) rotate(0) translate(4 598.5)">
<title>G</title>
<polygon fill="white" stroke="none" points="-4,4 -4,-598.5 598.5,-598.5 598.5,4 -4,4"/>
<!-- Containerd -->
<g id="node1" class="node">
<title>Containerd</title>
<polygon fill="lightblue" stroke="black" points="248.5,-573 82.5,-573 82.5,-537 248.5,-537 248.5,-573"/>
<text xml:space="preserve" text-anchor="middle" x="165.5" y="-546.95" font-family="Times,serif" font-size="14.00">Containerd (v1.7.0+)</text>
</g>
<!-- KuasarShim -->
<g id="node2" class="node">
<title>KuasarShim</title>
<polygon fill="lightblue" stroke="black" points="282.25,-394 48.75,-394 48.75,-358 282.25,-358 282.25,-394"/>
<text xml:space="preserve" text-anchor="middle" x="165.5" y="-373.2" font-family="Times,serif" font-size="14.00">Kuasar Shim</text>
<text xml:space="preserve" text-anchor="middle" x="165.5" y="-362.7" font-family="Times,serif" font-size="14.00">(Service&lt;T&gt;, KuasarServer&lt;T&gt;)</text>
</g>
<!-- Containerd&#45;&gt;KuasarShim -->
<g id="edge1" class="edge">
<title>Containerd&#45;&gt;KuasarShim</title>
<path fill="none" stroke="black" d="M165.5,-536.71C165.5,-506.3 165.5,-442.99 165.5,-405.87"/>
<polygon fill="black" stroke="black" points="169,-405.88 165.5,-395.88 162,-405.88 169,-405.88"/>
<text xml:space="preserve" text-anchor="middle" x="233" y="-457.95" font-family="Times,serif" font-size="14.00">CRI Runtime V2 API</text>
</g>
<!-- ShimCore -->
<g id="node3" class="node">
<title>ShimCore</title>
<polygon fill="lightblue" stroke="black" points="331,-236 0,-236 0,-200 331,-200 331,-236"/>
<text xml:space="preserve" text-anchor="middle" x="165.5" y="-209.95" font-family="Times,serif" font-size="14.00">Shim Core (SandboxHandler&lt;T&gt;, TaskHandler)</text>
</g>
<!-- KuasarShim&#45;&gt;ShimCore -->
<g id="edge2" class="edge">
<title>KuasarShim&#45;&gt;ShimCore</title>
<path fill="none" stroke="black" d="M165.5,-357.71C165.5,-331.12 165.5,-279.9 165.5,-247.69"/>
<polygon fill="black" stroke="black" points="169,-247.88 165.5,-237.88 162,-247.88 169,-247.88"/>
</g>
<!-- KuasarSandboxer -->
<g id="node4" class="node">
<title>KuasarSandboxer</title>
<polygon fill="lightblue" stroke="black" points="233.5,-57 97.5,-57 97.5,-21 233.5,-21 233.5,-57"/>
<text xml:space="preserve" text-anchor="middle" x="165.5" y="-30.95" font-family="Times,serif" font-size="14.00">Kuasar Sandboxer</text>
</g>
<!-- ShimCore&#45;&gt;KuasarSandboxer -->
<g id="edge3" class="edge">
<title>ShimCore&#45;&gt;KuasarSandboxer</title>
<path fill="none" stroke="black" d="M165.5,-199.71C165.5,-169.3 165.5,-105.99 165.5,-68.87"/>
<polygon fill="black" stroke="black" points="169,-68.88 165.5,-58.88 162,-68.88 169,-68.88"/>
<text xml:space="preserve" text-anchor="middle" x="206.75" y="-120.95" font-family="Times,serif" font-size="14.00">Sandbox API</text>
</g>
<!-- KuasarTasker -->
<g id="node5" class="node">
<title>KuasarTasker</title>
<polygon fill="lightblue" stroke="black" points="466.25,-57 352.75,-57 352.75,-21 466.25,-21 466.25,-57"/>
<text xml:space="preserve" text-anchor="middle" x="409.5" y="-30.95" font-family="Times,serif" font-size="14.00">Kuasar Tasker</text>
</g>
<!-- ShimCore&#45;&gt;KuasarTasker -->
<g id="edge4" class="edge">
<title>ShimCore&#45;&gt;KuasarTasker</title>
<path fill="none" stroke="black" d="M189.34,-199.71C233.16,-167.92 326.59,-100.14 376.48,-63.95"/>
<polygon fill="black" stroke="black" points="378.3,-66.96 384.34,-58.25 374.19,-61.29 378.3,-66.96"/>
<text xml:space="preserve" text-anchor="middle" x="317.5" y="-120.95" font-family="Times,serif" font-size="14.00">Task API</text>
</g>
<!-- VSockTransport_Node -->
<g id="node6" class="node">
<title>VSockTransport_Node</title>
<polygon fill="lightblue" stroke="black" points="470,-236 349,-236 349,-200 470,-200 470,-236"/>
<text xml:space="preserve" text-anchor="middle" x="409.5" y="-215.2" font-family="Times,serif" font-size="14.00">VSockTransport</text>
<text xml:space="preserve" text-anchor="middle" x="409.5" y="-204.7" font-family="Times,serif" font-size="14.00">(for VMM)</text>
</g>
<!-- VSockTransport_Node&#45;&gt;KuasarTasker -->
<g id="edge5" class="edge">
<title>VSockTransport_Node&#45;&gt;KuasarTasker</title>
<path fill="none" stroke="black" d="M409.5,-199.71C409.5,-169.3 409.5,-105.99 409.5,-68.87"/>
<polygon fill="black" stroke="black" points="413,-68.88 409.5,-58.88 406,-68.88 413,-68.88"/>
<text xml:space="preserve" text-anchor="middle" x="447" y="-120.95" font-family="Times,serif" font-size="14.00">IO (VSock)</text>
</g>
<!-- UdsTransport_Node -->
<g id="node7" class="node">
<title>UdsTransport_Node</title>
<polygon fill="lightblue" stroke="black" points="594.5,-236 488.5,-236 488.5,-200 594.5,-200 594.5,-236"/>
<text xml:space="preserve" text-anchor="middle" x="541.5" y="-215.2" font-family="Times,serif" font-size="14.00">UdsTransport</text>
<text xml:space="preserve" text-anchor="middle" x="541.5" y="-204.7" font-family="Times,serif" font-size="14.00">(for Wasm)</text>
</g>
<!-- UdsTransport_Node&#45;&gt;KuasarTasker -->
<g id="edge6" class="edge">
<title>UdsTransport_Node&#45;&gt;KuasarTasker</title>
<path fill="none" stroke="black" d="M533.27,-199.74C523.7,-180.44 506.87,-148.61 488.5,-123.75 472.82,-102.53 452.31,-80.93 436.11,-64.98"/>
<polygon fill="black" stroke="black" points="438.79,-62.7 429.17,-58.24 433.91,-67.72 438.79,-62.7"/>
<text xml:space="preserve" text-anchor="middle" x="525.22" y="-120.95" font-family="Times,serif" font-size="14.00">IO (UDS)</text>
</g>
</g>
</svg>
