<?xml version="1.0" encoding="UTF-8" standalone="no"?>
<!DOCTYPE svg PUBLIC "-//W3C//DTD SVG 1.1//EN"
 "http://www.w3.org/Graphics/SVG/1.1/DTD/svg11.dtd">
<!-- Generated by graphviz version 2.44.1 (20201121.0304)
 -->
<!-- Title: G Pages: 1 -->
<svg width="685pt" height="605pt"
 viewBox="0.00 0.00 685.00 605.00" xmlns="http://www.w3.org/2000/svg" xmlns:xlink="http://www.w3.org/1999/xlink"><style>
  * {
    fill: transparent !important;
    stroke: rgb(0, 37, 73) !important;
    stroke-width: 1 !important;
  }
  polygon:not(.cluster *, .node *, .edge *, text) {
    stroke: transparent !important;
  }
  text {
    font-size: 10px !important;
    font-family: monospace !important;
    fill: rgb(0, 37, 73) !important;
    stroke: transparent !important;
    transform: translateY(-0.5em);
  }
</style>
<g id="graph0" class="graph" transform="scale(1 1) rotate(0) translate(4 601)">
<title>G</title>
<polygon fill="white" stroke="none" points="-4,4 -4,-601 680.9,-601 680.9,4 -4,4"/>
<!-- Makefile -->
<g id="node1" class="node">
<title>Makefile</title>
<polygon fill="lightblue" stroke="black" points="154.25,-577 40.75,-577 40.75,-541 154.25,-541 154.25,-577"/>
<text xml:space="preserve" text-anchor="middle" x="97.5" y="-550.95" font-family="Times,serif" font-size="14.00">shim/Makefile</text>
</g>
<!-- shim_bins -->
<g id="node2" class="node">
<title>shim_bins</title>
<polygon fill="lightblue" stroke="black" points="207.25,-403 93.75,-403 93.75,-367 207.25,-367 207.25,-403"/>
<text xml:space="preserve" text-anchor="middle" x="150.5" y="-382.2" font-family="Times,serif" font-size="14.00">Shim Binaries</text>
<text xml:space="preserve" text-anchor="middle" x="150.5" y="-371.7" font-family="Times,serif" font-size="14.00">(vmm, wasm)</text>
</g>
<!-- Makefile&#45;&gt;shim_bins -->
<g id="edge1" class="edge">
<title>Makefile&#45;&gt;shim_bins</title>
<path fill="none" stroke="black" d="M102.87,-540.56C112.04,-510.81 130.78,-450.01 141.82,-414.17"/>
<polygon fill="black" stroke="black" points="145.07,-415.52 144.67,-404.93 138.38,-413.46 145.07,-415.52"/>
<text xml:space="preserve" text-anchor="middle" x="178.09" y="-463.95" font-family="Times,serif" font-size="14.00">build and copy</text>
</g>
<!-- install_path -->
<g id="node7" class="node">
<title>install_path</title>
<polygon fill="lightblue" stroke="black" points="121,-56 0,-56 0,-20 121,-20 121,-56"/>
<text xml:space="preserve" text-anchor="middle" x="60.5" y="-29.95" font-family="Times,serif" font-size="14.00">/usr/local/bin</text>
</g>
<!-- Makefile&#45;&gt;install_path -->
<g id="edge7" class="edge">
<title>Makefile&#45;&gt;install_path</title>
<path fill="none" stroke="black" d="M93.6,-540.52C84.66,-499.41 62.87,-393.27 55.5,-303.25 48.51,-217.85 54.38,-116.43 58.06,-67.8"/>
<polygon fill="black" stroke="black" points="61.55,-68.1 58.85,-57.86 54.57,-67.55 61.55,-68.1"/>
<text xml:space="preserve" text-anchor="middle" x="108" y="-289.95" font-family="Times,serif" font-size="14.00">installs shims</text>
</g>
<!-- containerd_bin -->
<g id="node5" class="node">
<title>containerd_bin</title>
<polygon fill="lightblue" stroke="black" points="338.25,-230 194.75,-230 194.75,-194 338.25,-194 338.25,-230"/>
<text xml:space="preserve" text-anchor="middle" x="266.5" y="-203.95" font-family="Times,serif" font-size="14.00">containerd Binary</text>
</g>
<!-- shim_bins&#45;&gt;containerd_bin -->
<g id="edge5" class="edge">
<title>shim_bins&#45;&gt;containerd_bin</title>
<path fill="none" stroke="black" d="M150.74,-366.62C151.74,-347.28 155.6,-315.73 169.5,-292.75 183.37,-269.83 206.27,-250.53 226.34,-236.67"/>
<polygon fill="black" stroke="black" points="228.27,-239.59 234.66,-231.14 224.39,-233.76 228.27,-239.59"/>
<text xml:space="preserve" text-anchor="middle" x="252" y="-289.95" font-family="Times,serif" font-size="14.00">integrated as runtimes</text>
</g>
<!-- build_script -->
<g id="node3" class="node">
<title>build_script</title>
<polygon fill="lightblue" stroke="black" points="555.75,-577 397.25,-577 397.25,-541 555.75,-541 555.75,-577"/>
<text xml:space="preserve" text-anchor="middle" x="476.5" y="-550.95" font-family="Times,serif" font-size="14.00">build&#45;containerd.sh</text>
</g>
<!-- containerd_repo -->
<g id="node4" class="node">
<title>containerd_repo</title>
<polygon fill="lightblue" stroke="black" points="597,-403 356,-403 356,-367 597,-367 597,-403"/>
<text xml:space="preserve" text-anchor="middle" x="476.5" y="-376.95" font-family="Times,serif" font-size="14.00">containerd.git (v0.2.0&#45;kuasar)</text>
</g>
<!-- build_script&#45;&gt;containerd_repo -->
<g id="edge2" class="edge">
<title>build_script&#45;&gt;containerd_repo</title>
<path fill="none" stroke="black" d="M476.5,-540.56C476.5,-510.94 476.5,-450.54 476.5,-414.64"/>
<polygon fill="black" stroke="black" points="480,-415 476.5,-405 473,-415 480,-415"/>
<text xml:space="preserve" text-anchor="middle" x="499" y="-463.95" font-family="Times,serif" font-size="14.00">clones</text>
</g>
<!-- build_script&#45;&gt;containerd_bin -->
<g id="edge3" class="edge">
<title>build_script&#45;&gt;containerd_bin</title>
<path fill="none" stroke="black" d="M504.25,-540.55C553.75,-507.19 648.35,-431.89 606.5,-367 550.15,-279.62 430.87,-241.28 349.68,-224.83"/>
<polygon fill="black" stroke="black" points="350.46,-221.41 339.98,-222.94 349.12,-228.28 350.46,-221.41"/>
<text xml:space="preserve" text-anchor="middle" x="646.9" y="-376.95" font-family="Times,serif" font-size="14.00">compiles</text>
</g>
<!-- config_toml -->
<g id="node6" class="node">
<title>config_toml</title>
<polygon fill="lightblue" stroke="black" points="337.75,-403 239.25,-403 239.25,-367 337.75,-367 337.75,-403"/>
<text xml:space="preserve" text-anchor="middle" x="288.5" y="-376.95" font-family="Times,serif" font-size="14.00">config.toml</text>
</g>
<!-- build_script&#45;&gt;config_toml -->
<g id="edge4" class="edge">
<title>build_script&#45;&gt;config_toml</title>
<path fill="none" stroke="black" d="M457.44,-540.56C423.94,-509.91 354.41,-446.3 315.81,-410.98"/>
<polygon fill="black" stroke="black" points="318.47,-408.67 308.73,-404.51 313.74,-413.84 318.47,-408.67"/>
<text xml:space="preserve" text-anchor="middle" x="421.89" y="-463.95" font-family="Times,serif" font-size="14.00">generates</text>
</g>
<!-- containerd_bin&#45;&gt;install_path -->
<g id="edge8" class="edge">
<title>containerd_bin&#45;&gt;install_path</title>
<path fill="none" stroke="black" d="M245.61,-193.56C208.83,-162.85 132.4,-99.03 90.16,-63.76"/>
<polygon fill="black" stroke="black" points="92.52,-61.18 82.6,-57.46 88.04,-66.55 92.52,-61.18"/>
<text xml:space="preserve" text-anchor="middle" x="192.18" y="-116.95" font-family="Times,serif" font-size="14.00">placed</text>
</g>
<!-- config_toml&#45;&gt;containerd_bin -->
<g id="edge6" class="edge">
<title>config_toml&#45;&gt;containerd_bin</title>
<path fill="none" stroke="black" d="M308.7,-366.51C326.75,-348.63 348.88,-319.73 338.5,-292.75 330.25,-271.3 313.27,-252.03 297.87,-237.81"/>
<polygon fill="black" stroke="black" points="300.48,-235.45 290.67,-231.44 295.85,-240.69 300.48,-235.45"/>
<text xml:space="preserve" text-anchor="middle" x="378.46" y="-289.95" font-family="Times,serif" font-size="14.00">configures</text>
</g>
</g>
</svg>
