<?xml version="1.0" encoding="UTF-8" standalone="no"?>
<!DOCTYPE svg PUBLIC "-//W3C//DTD SVG 1.1//EN"
 "http://www.w3.org/Graphics/SVG/1.1/DTD/svg11.dtd">
<!-- Generated by graphviz version 2.44.1 (20201121.0304)
 -->
<!-- Title: G Pages: 1 -->
<svg width="654pt" height="654pt"
 viewBox="0.00 0.00 654.00 654.00" xmlns="http://www.w3.org/2000/svg" xmlns:xlink="http://www.w3.org/1999/xlink"><style>
  * {
    fill: transparent !important;
    stroke: rgb(0, 37, 73) !important;
    stroke-width: 1 !important;
  }
  polygon:not(.cluster *, .node *, .edge *, text) {
    stroke: transparent !important;
  }
  text {
    font-size: 10px !important;
    font-family: monospace !important;
    fill: rgb(0, 37, 73) !important;
    stroke: transparent !important;
    transform: translateY(-0.5em);
  }
</style>
<g id="graph0" class="graph" transform="scale(1 1) rotate(0) translate(4 650.25)">
<title>G</title>
<polygon fill="white" stroke="none" points="-4,4 -4,-650.25 650.25,-650.25 650.25,4 -4,4"/>
<!-- Containerd -->
<g id="node1" class="node">
<title>Containerd</title>
<polygon fill="lightblue" stroke="black" points="401.5,-623 310.5,-623 310.5,-587 401.5,-587 401.5,-623"/>
<text xml:space="preserve" text-anchor="middle" x="356" y="-596.95" font-family="Times,serif" font-size="14.00">Containerd</text>
</g>
<!-- KuasarShimService -->
<g id="node2" class="node">
<title>KuasarShimService</title>
<polygon fill="lightblue" stroke="black" points="547.75,-435 164.25,-435 164.25,-399 547.75,-399 547.75,-435"/>
<text xml:space="preserve" text-anchor="middle" x="356" y="-408.95" font-family="Times,serif" font-size="14.00">Kuasar Shim Service (Service&lt;T&gt;, KuasarServer&lt;T&gt;)</text>
</g>
<!-- Containerd&#45;&gt;KuasarShimService -->
<g id="edge1" class="edge">
<title>Containerd&#45;&gt;KuasarShimService</title>
<path fill="none" stroke="black" d="M356,-586.5C356,-554.36 356,-485.66 356,-446.63"/>
<polygon fill="black" stroke="black" points="359.5,-446.83 356,-436.83 352.5,-446.83 359.5,-446.83"/>
<text xml:space="preserve" text-anchor="middle" x="423.5" y="-502.95" font-family="Times,serif" font-size="14.00">gRPC/tRPC requests</text>
</g>
<!-- SandboxHandler -->
<g id="node3" class="node">
<title>SandboxHandler</title>
<polygon fill="lightblue" stroke="black" points="353.25,-247 224.75,-247 224.75,-211 353.25,-211 353.25,-247"/>
<text xml:space="preserve" text-anchor="middle" x="289" y="-220.95" font-family="Times,serif" font-size="14.00">Sandbox Handler</text>
</g>
<!-- KuasarShimService&#45;&gt;SandboxHandler -->
<g id="edge2" class="edge">
<title>KuasarShimService&#45;&gt;SandboxHandler</title>
<path fill="none" stroke="black" d="M349.44,-398.55C342.81,-380.87 332.32,-352.7 323.5,-328.25 314.99,-304.65 305.57,-277.77 298.72,-258.1"/>
<polygon fill="black" stroke="black" points="302.1,-257.15 295.51,-248.85 295.49,-259.45 302.1,-257.15"/>
<text xml:space="preserve" text-anchor="middle" x="357.25" y="-314.95" font-family="Times,serif" font-size="14.00">delegates</text>
</g>
<!-- TaskHandler -->
<g id="node4" class="node">
<title>TaskHandler</title>
<polygon fill="lightblue" stroke="black" points="477,-247 371,-247 371,-211 477,-211 477,-247"/>
<text xml:space="preserve" text-anchor="middle" x="424" y="-220.95" font-family="Times,serif" font-size="14.00">Task Handler</text>
</g>
<!-- KuasarShimService&#45;&gt;TaskHandler -->
<g id="edge3" class="edge">
<title>KuasarShimService&#45;&gt;TaskHandler</title>
<path fill="none" stroke="black" d="M363.26,-398.63C370.55,-381 381.96,-352.89 391,-328.25 399.6,-304.81 408.58,-277.91 414.99,-258.19"/>
<polygon fill="black" stroke="black" points="418.24,-259.53 417.98,-248.93 411.58,-257.37 418.24,-259.53"/>
<text xml:space="preserve" text-anchor="middle" x="427.62" y="-314.95" font-family="Times,serif" font-size="14.00">delegates</text>
</g>
<!-- ContainerdSandboxV2Controller -->
<g id="node5" class="node">
<title>ContainerdSandboxV2Controller</title>
<polygon fill="lightblue" stroke="black" points="256,-59 0,-59 0,-23 256,-23 256,-59"/>
<text xml:space="preserve" text-anchor="middle" x="128" y="-32.95" font-family="Times,serif" font-size="14.00">containerd&#45;sandbox v2 Controller</text>
</g>
<!-- SandboxHandler&#45;&gt;ContainerdSandboxV2Controller -->
<g id="edge4" class="edge">
<title>SandboxHandler&#45;&gt;ContainerdSandboxV2Controller</title>
<path fill="none" stroke="black" d="M269.29,-210.78C250.26,-193.72 221.08,-166.44 198.5,-140.25 178.8,-117.4 159,-89.24 145.42,-68.93"/>
<polygon fill="black" stroke="black" points="148.37,-67.05 139.93,-60.64 142.53,-70.91 148.37,-67.05"/>
<text xml:space="preserve" text-anchor="middle" x="247.25" y="-126.95" font-family="Times,serif" font-size="14.00">gRPC requests</text>
</g>
<!-- ContainerdIoTransport -->
<g id="node7" class="node">
<title>ContainerdIoTransport</title>
<polygon fill="lightblue" stroke="black" points="470,-59 274,-59 274,-23 470,-23 470,-59"/>
<text xml:space="preserve" text-anchor="middle" x="372" y="-32.95" font-family="Times,serif" font-size="14.00">ContainerIoTransport (T)</text>
</g>
<!-- SandboxHandler&#45;&gt;ContainerdIoTransport -->
<g id="edge6" class="edge">
<title>SandboxHandler&#45;&gt;ContainerdIoTransport</title>
<path fill="none" stroke="black" d="M289.05,-210.6C289.68,-190.38 292.57,-156.39 304,-129.75 314.03,-106.37 331.8,-83.77 346.65,-67.37"/>
<polygon fill="black" stroke="black" points="348.81,-70.19 353.07,-60.49 343.69,-65.41 348.81,-70.19"/>
<text xml:space="preserve" text-anchor="middle" x="349" y="-126.95" font-family="Times,serif" font-size="14.00">prepares I/O</text>
</g>
<!-- KuasarTaskService -->
<g id="node6" class="node">
<title>KuasarTaskService</title>
<polygon fill="lightblue" stroke="black" points="646.25,-59 487.75,-59 487.75,-23 646.25,-23 646.25,-59"/>
<text xml:space="preserve" text-anchor="middle" x="567" y="-32.95" font-family="Times,serif" font-size="14.00">Kuasar Task Service</text>
</g>
<!-- TaskHandler&#45;&gt;KuasarTaskService -->
<g id="edge5" class="edge">
<title>TaskHandler&#45;&gt;KuasarTaskService</title>
<path fill="none" stroke="black" d="M437.45,-210.5C462.64,-177.74 517.05,-106.97 546.71,-68.39"/>
<polygon fill="black" stroke="black" points="549.44,-70.58 552.76,-60.52 543.89,-66.31 549.44,-70.58"/>
<text xml:space="preserve" text-anchor="middle" x="544.25" y="-126.95" font-family="Times,serif" font-size="14.00">tRPC requests</text>
</g>
<!-- TaskHandler&#45;&gt;ContainerdIoTransport -->
<g id="edge7" class="edge">
<title>TaskHandler&#45;&gt;ContainerdIoTransport</title>
<path fill="none" stroke="black" d="M419.11,-210.5C410.1,-178.29 390.83,-109.36 379.93,-70.38"/>
<polygon fill="black" stroke="black" points="383.31,-69.46 377.25,-60.77 376.57,-71.35 383.31,-69.46"/>
<text xml:space="preserve" text-anchor="middle" x="439.25" y="-126.95" font-family="Times,serif" font-size="14.00">manages I/O</text>
</g>
</g>
</svg>
